
<svg xmlns="http://www.w3.org/2000/svg" version="1.1" xmlns:xlink="http://www.w3.org/1999/xlink" preserveAspectRatio="none" x="0px" y="0px" width="253px" height="259px" viewBox="0 0 253 259">
<defs>
<g id="Symbol_2_0_Layer1_0_MEMBER_0_FILL">
<path fill="#382E22" stroke="none" d="
M 421.7 345.25
Q 424 341.2 424.55 339.35 431.75 350.85 437.85 356.25 446.6 324.8 436.4 299.1 426.25 266.8 291.35 226.55 156.45 186.25 61.45 287.3 51.1482421875 298.264453125 45.05 308.65 19.7412109375 327.502734375 27.2 349.8
L 27.2 359.15
Q 27.854296875 362.3498046875 42 359.15 63.5595703125 382.880859375 72.2 410.85 80.85 438.8 95.45 456.1 89 439.1 95.45 427.6 109.75 450.75 133.95 454.1 140.7 455.2 147.45 456.15 133 444.9 134.45 430.1 147.65 448.65 172.25 459.05 170.95 434.5 228.35 431.2 250.75 430.25 284.9 446.1
L 311.4 459.55
Q 304.65 451.45 309.9 438.6
L 327.95 454.35
Q 351.55 474.15 361.2 471.1 351 455.4 353.7 437.1 359.7 443.95 365.7 444.85 385.55 396.45 420.8 346.55 421.25 345.9 421.7 345.25 Z"/>
</g>

<g id="Symbol_2_0_Layer1_0_MEMBER_0_STROKES_1_FILL">
<path fill="#000000" stroke="none" d="
M 423.95 334.65
L 422.2 339.9 421.1 342.15
Q 420.5 343.35 420.55 344.6
L 420.65 344.5
Q 420.6 345.35 420.8 346.55 422.2 346.2 422.7 345.95
L 422.8 345.85
Q 423.9 345.25 424.6 344
L 424.85 343.5 426.6 346.05 426.8 346.4 427.45 347.25
Q 428.45 348.75 429.45 350
L 433.5 354.8
Q 434 355.3 434.45 355.55
L 434.9 355.8 435.15 355.9 436.55 356.2 437.8 356.25 437.7 354.95 437.4 353.65 437.3 353.4 437.05 352.95
Q 436.8 352.45 436.4 352.05
L 434.85 350.3 434.6 349.95 434.3 349.65 433.2 348.25 433.05 348.1 430.65 344.95 430.35 344.45 430.05 344.1 423.95 334.65 Z"/>
</g>

<path id="Symbol_2_0_Layer1_0_MEMBER_0_1_STROKES" stroke="#000000" stroke-width="4" stroke-linejoin="round" stroke-linecap="round" fill="none" d="
M 42 359.15
Q 63.5595703125 382.880859375 72.2 410.85 80.85 438.8 95.45 456.1 89 439.1 95.45 427.6 109.75 450.75 133.95 454.1 140.7 455.2 147.45 456.15 133 444.9 134.45 430.1 147.65 448.65 172.25 459.05 170.95 434.5 228.35 431.2 250.75 430.25 284.9 446.1
L 311.4 459.55
Q 304.65 451.45 309.9 438.6
L 327.95 454.35
Q 351.55 474.15 361.2 471.1 351 455.4 353.7 437.1 359.7 443.95 365.7 444.85 385.55 396.45 420.8 346.55
M 424.65 341.1
Q 423.15 343.15 421.7 345.25"/>
</defs>

<g transform="matrix( 0.540679931640625, 0, 0, 0.5406341552734375, 1.3,1.5) ">
<g transform="matrix( 1, 0, 0, 1, 0,0) ">
<use xlink:href="#Symbol_2_0_Layer1_0_MEMBER_0_FILL"/>

<use xlink:href="#Symbol_2_0_Layer1_0_MEMBER_0_1_STROKES"/>

<use xlink:href="#Symbol_2_0_Layer1_0_MEMBER_0_STROKES_1_FILL"/>
</g>
</g>
</svg>
