
<svg xmlns="http://www.w3.org/2000/svg" version="1.1" xmlns:xlink="http://www.w3.org/1999/xlink" preserveAspectRatio="none" x="0px" y="0px" width="190px" height="251px" viewBox="0 0 190 251">
<defs>
<g id="Symbol_30_0_Layer0_0_FILL">
<path fill="#F9CEB1" stroke="none" d="
M 326.65 279.95
Q 326.2 279.3 325.7 278.75 324.35 277.15 322.8 276.25 312.3 270.2 293.2 295.25 311.95 210.35 292.9 166.9 292.7 166.45 292.55 166.05 291.8 164.65 291.05 163.35 255.5 101.7 174.25 153.75 107.25 122.3 73.2 143.25 68.4 178.75 85.75 216.75 56.2 271.05 73.05 345.25 83.25 392.15 120.3 429.7 128.75 438.25 138.6 446.35 138.65 446.4 138.75 446.45 145.55 452.05 153.05 457.4 145.35 452.85 137.65 447.85
L 137.5 447.75
Q 136.9 447.85 136.35 448.1 140.8 451 145 453.35 162.75 463.25 182.75 467.1 184.3 467.35 185.45 467.7 186.6 467.2 188.25 466.7 202.6 462.25 214.2 452.95 218 449.85 225.2 443.25 232.6 436.8 248.35 424.7 261.75 413.6 268.05 403.3 269.15 401.45 270 400.6 270.45 400.15 270.9 399.8 278.2 390.6 283.9 380.85 294.15 362.6 294.2 343.3 315.55 328.9 321.7 317 328.35 306.65 330.05 298.2 332.2 287.6 326.65 279.95
M 236.05 376.05
Q 236.15 377.1 236.3 377.9 236.4 378.65 234.35 378.85 232.3 379.05 231.25 378.1 230.15 377.1 230.15 375.65 230.15 374.2 231.15 373.2 232.15 372.2 233.6 372.3 235.05 372.4 235.5 373.7 235.95 375 236.05 376.05
M 178.8 407.25
Q 183.3 404.2 188.05 406.55 196.35 409.1 191.65 413.2 189.2 415.2 186.9 414.45 184.05 413.7 182.1 414.25 180.25 414.95 179.3 414.75 172.4 412.15 178.8 407.25 Z"/>

<path fill="#F7BE98" stroke="none" d="
M 188.05 406.55
Q 183.3 404.2 178.8 407.25 172.4 412.15 179.3 414.75 180.25 414.95 182.1 414.25 184.05 413.7 186.9 414.45 189.2 415.2 191.65 413.2 196.35 409.1 188.05 406.55
M 236.3 377.9
Q 236.15 377.1 236.05 376.05 235.95 375 235.5 373.7 235.05 372.4 233.6 372.3 232.15 372.2 231.15 373.2 230.15 374.2 230.15 375.65 230.15 377.1 231.25 378.1 232.3 379.05 234.35 378.85 236.4 378.65 236.3 377.9 Z"/>

<path fill="#1D0B01" stroke="none" d="
M 326.4 150.05
L 326.4 150
Q 311.4 135.85 311.2 122 309.75 107.5 316.7 93.75 313.4 88.3 293.5 90 277.1 80.5 275.75 56.75
L 267.5 70.25
Q 234.4 39.05 218 34.25 200.75 27.8 189.75 11.75 184 15.45 179.25 28.25 171.75 14.6 170.25 0
L 98.5 59.5
Q 96.5 46.7 105.25 38.75 52.85 51.75 44.5 97.75 11.7 139.1 0 188 5.95 183.75 12.5 185.25 2.7 249.9 18.45 285.25 28.85 277.4 52.7 302 34.9 243.5 44.7 185.25 45.1 183.8 45.55 182.4 54.35 154.8 73.2 143.25 107.25 122.3 174.25 153.75 255.5 101.7 291.05 163.35 291.8 164.65 292.55 166.05 292.7 166.45 292.9 166.9 311.95 210.35 293.2 295.25 312.3 270.2 322.8 276.25 326.5 271.65 327.95 264.25 333.45 242.3 332.7 193
L 338.7 200.75
Q 343.3 190.1 334.7 174.5 343.45 177.1 353.95 173.75 337.75 161.45 326.4 150.05 Z"/>
</g>

<g id="Symbol_30_0_Layer0_0_MEMBER_0_FILL">
<path fill="#F7BE98" stroke="none" d="
M 45.5 182.35
Q 45.05 183.75 44.65 185.2 34.85 243.45 52.65 301.95 28.8 277.35 18.4 285.2 16.3 286.8 14.75 289.75 14.6 290 14.5 290.25 14.25 290.85 14.05 291.5 13.05 294.85 12.75 298.15 11.35 313.75 26 329.1 26.45 329.6 26.95 330.05 39.7 343.2 53.9 349.35 59.65 379.85 83.5 405.05 83.9 406.6 84.25 408.25 85.1 408.8 86 409.55 87.3 410.45 88.55 411.7 89.75 412.95 93.15 417.2 93.85 418.1 94.6 418.95 95.65 419.6 97 420.8
L 102.2 425.35
Q 105.45 428.35 107.6 429.75 108.25 430.2 112.9 432.9 116.5 434.9 122.2 438.45 127.2 441.6 129.05 443.65 129.45 444.1 130 444.8 134.55 447.1 136.2 448.1 136.8 447.85 137.45 447.7 137.5 447.7 137.55 447.75
L 138.55 446.3 137.7 447.85 167.3 463.5
Q 156.9 450.2 144.8 442 97.05 412.15 73 345.2 56.15 271 85.7 216.7 68.35 178.7 73.15 143.2 54.3 154.75 45.5 182.35 Z"/>
</g>

<g id="Symbol_30_0_Layer0_0_MEMBER_1_FILL">
<path fill="#F7BE98" stroke="none" d="
M 305.8 300.9
Q 308.4 303.05 311.2 302.45 323.25 285.5 320 286.4 310.25 289.2 305.8 300.9 Z"/>
</g>

<g id="Symbol_30_0_Layer0_0_MEMBER_1_MEMBER_0_STROKES_1_FILL">
<path fill="#000000" stroke="none" d="
M 2066.95 429.5
Q 2066.9 427.85 2066.7 426.25 2066.55 424.75 2066.5 424.95
L 2066.25 423.55 2065.9 422.4
Q 2065.6 421.35 2065.25 421.1 2064.95 420.85 2064.7 421.75
L 2063.35 432.4 2063.25 432.85 2063.15 433.7 2063.1 433.75 2063.1 434.05 2062.55 438.55
Q 2062.25 440.95 2061.65 443.55 2061 446.4 2060.15 449.15 2059.3 452.15 2058.25 454.65 2057.3 457.05 2056.2 459.4
L 2053.95 463.9 2053.85 464 2053.9 464.3
Q 2054.3 465.9 2055.45 466.25 2056.3 466.5 2057.2 466.1 2057.3 466.1 2057.4 465.95
L 2057.45 465.8 2058.1 464.55 2058.3 464.25 2061.9 456.25
Q 2062.65 454.45 2063.95 450.55 2064.65 448.25 2065.5 444.7 2066.2 441.5 2066.45 439.55
L 2067.1 434.45 2067.1 432.55 2067.05 432.15 2066.95 429.5 Z"/>
</g>

<g id="Symbol_30_0_Layer0_0_MEMBER_1_MEMBER_1_STROKES_1_FILL">
<path fill="#000000" stroke="none" d="
M 1825.05 429.5
Q 1824.6 427.65 1824.2 427.15 1823.85 426.7 1823.75 428.25
L 1824 434.1
Q 1824.2 436.6 1824.7 439.55
L 1827.15 449.95 1827.2 450.25 1827.25 450.35 1830.8 459.05
Q 1832.6 463.1 1835.2 467.65 1838.1 472.7 1841.15 477 1844.55 481.8 1847.9 485.75
L 1861.1 499.45 1861.3 499.6 1861.45 499.8 1861.95 500
Q 1864.35 500.6 1864.75 499.4 1865.1 498.55 1864.4 497.15 1864.25 496.9 1864.15 496.8
L 1857.4 490.25
Q 1854.25 487.05 1851.15 483.35 1847.25 478.75 1844.65 475 1841.35 470.35 1838.95 466.15 1836.95 462.7 1834.7 458.05
L 1830.3 447.3 1827.1 437.35 1827.05 437.05 1825.05 429.5 Z"/>
</g>

<g id="Symbol_30_0_Layer0_0_MEMBER_1_MEMBER_2_STROKES_1_FILL">
<path fill="#000000" stroke="none" d="
M 2065.2 250.25
L 2064.25 249.3 2063.95 249.1
Q 2063.45 248.65 2063.05 248.5 2062.25 248.3 2061.95 248.8 2061.7 249.2 2061.7 250.2
L 2061.85 251.95 2062 252.55 2063.5 256.05 2063.55 256.3 2063.65 256.5 2065.2 260.8
Q 2066.3 264.15 2066.9 266.45 2068.8 273.25 2069.85 280.8 2071 288.35 2071.4 297.45 2071.75 305.4 2071.5 314.15
L 2068.55 347.15
Q 2068.05 351.5 2067.3 356.45 2066.4 363.2 2065.4 369.2
L 2064.1 378.85
Q 2064 379.85 2064.1 380.25 2064.25 380.95 2065.05 378.75 2066.2 375.4 2067.5 369.95 2068.2 367.4 2069.5 361.7
L 2073.35 340.7
Q 2073.95 335.9 2074.45 330.2
L 2075.45 315.2
Q 2075.8 305.9 2075.45 297.9 2075.3 293.9 2074.9 289.1 2074.3 283.45 2073.9 280.6 2073.45 277.45 2072.5 272.65 2072.05 270.4 2070.85 265.6 2069.9 262.2 2069.05 259.65
L 2065.7 250.95 2065.2 250.25 Z"/>
</g>

<g id="Symbol_30_0_Layer0_0_MEMBER_1_MEMBER_3_STROKES_1_FILL">
<path fill="#000000" stroke="none" d="
M 1815.85 284.5
L 1817.75 271.05 1817.7 270.3
Q 1817.1 267.05 1815.85 267.5 1814.95 267.85 1814 269.8 1813.9 270 1813.8 270.35
L 1811.9 283.9
Q 1811.2 290.1 1810.75 297.35 1810.3 305.15 1810.35 312.75 1810.35 320 1810.85 328.1
L 1812.2 342.15 1812.2 342.5 1816.25 364.8 1816.35 365.1 1816.7 366.5
Q 1817.7 370.45 1818.9 374.6 1819.95 378.35 1819.85 377.75
L 1822 384
Q 1823 386.6 1823.5 387.15 1824 387.75 1823.65 385.55
L 1819 360.6 1818.9 360.25 1816.2 341.9
Q 1815.45 335.95 1814.9 328.65 1814.4 320.85 1814.35 313.35 1814.3 305.75 1814.75 297.95 1815 292.75 1815.85 284.5 Z"/>
</g>

<g id="Symbol_30_0_Layer0_0_MEMBER_1_MEMBER_4_MEMBER_0_STROKES_1_FILL">
<path fill="#000000" stroke="none" d="
M 1806.5 370.15
Q 1804.5 369.05 1803.6 368.65 1801.7 367.8 1800.45 367.4
L 1800 367.3 1799.6 367.15 1797.4 366.7 1796.05 366.6 1795.85 366.55 1794.95 366.55 1794.7 366.6 1794.25 366.6 1793.35 366.7
Q 1791.65 367 1790.05 367.8 1788.75 368.45 1787.5 369.6 1786.45 370.6 1785.75 371.5
L 1784.45 373.4 1784.15 373.95 1784.05 374.2 1783.8 374.65 1783.95 375.45 1784.15 375.8 1784.55 376.35
Q 1784.95 376.75 1785.5 376.85 1785.85 376.95 1786.5 376.85
L 1786.7 376.75 1786.8 376.75 1787.25 376.55
Q 1787.4 376.5 1787.4 376.4
L 1787.7 375.9 1787.8 375.65 1788.1 375.2 1788.25 374.9 1788.55 374.45 1788.7 374.3 1788.95 373.95
Q 1789.4 373.3 1790.15 372.6
L 1790.5 372.25 1790.9 371.95 1791.8 371.4 1792.8 371
Q 1793.35 370.75 1793.9 370.7
L 1794.2 370.65 1794.35 370.65 1794.5 370.6 1796.35 370.6 1796.55 370.65 1796.7 370.65 1797.35 370.75 1797.7 370.85 1798.05 370.9 1798.35 371 1799.05 371.15 1800.7 371.75 1800.9 371.8 1801.05 371.9 1801.7 372.2
Q 1802.75 372.65 1804.2 373.45
L 1807.05 375.2 1819 384.4
Q 1820.05 385.25 1820.05 385.2 1822.85 387.4 1823.6 387.4 1823.95 387.35 1823.6 386.5
L 1822.95 385.4 1821.7 383.7
Q 1820.05 381.5 1817.7 378.95
L 1815.45 376.6 1809 371.75
Q 1807.8 370.9 1806.5 370.15 Z"/>
</g>

<g id="Symbol_30_0_Layer0_0_MEMBER_1_MEMBER_5_STROKES_1_FILL">
<path fill="#000000" stroke="none" d="
M 2064.2 380.3
Q 2064.2 380.65 2064.9 380.15
L 2065.75 379.4
Q 2066.5 378.75 2067.05 378.15 2068.3 377 2070.9 374.4
L 2079.7 366.2
Q 2081.8 364.55 2084.05 363.35 2085.35 362.7 2086.4 362.35
L 2087.6 362 2087.9 361.95 2088.05 361.95 2088.2 361.9 2088.75 361.85
Q 2089.7 361.75 2090.9 361.9
L 2091.35 362.05 2091.6 362.1 2091.7 362.15 2091.8 362.15 2092.65 362.5
Q 2093.15 362.75 2094.05 363.4
L 2095.05 364.25 2095.9 365.2 2096.05 365.25 2096.15 365.3 2096.5 365.35 2096.65 365.35 2096.8 365.4 2097.35 365.35
Q 2097.8 365.3 2098.05 364.95 2098.25 364.65 2098.35 364.25
L 2098.35 363.55 2098.25 363.3 2095.95 361
Q 2094.95 360.25 2094.05 359.85
L 2093.75 359.7 2093.45 359.6 2093.15 359.45 2091.9 359.05 2091.55 359 2091.2 358.9 2090.85 358.85 2090.45 358.85 2090.1 358.8 2089 358.8 2088.6 358.85
Q 2088.05 358.85 2087.15 359.05
L 2085.65 359.4
Q 2084.2 359.85 2082.9 360.55 2080.55 361.75 2078.1 363.65 2077.15 364.25 2076.1 365.25
L 2074.4 366.8
Q 2072.95 368.15 2071.95 369.2
L 2071.05 370.1 2066.5 376.05 2065.85 377.05
Q 2064.1 379.65 2064.2 380.3 Z"/>
</g>

<g id="Symbol_30_0_Layer0_0_MEMBER_1_MEMBER_6_STROKES_1_FILL">
<path fill="#000000" stroke="none" d="
M 1822.65 434.75
L 1822.8 434.75 1822.9 434.8 1823.8 434.95
Q 1824.7 435.05 1824.9 434.85 1825.25 434.7 1824.8 434.15
L 1824.1 433.45 1822.1 431.9 1821.95 431.85 1821.65 431.55 1817.7 428.55 1817.5 428.45 1808.55 422.15 1808.15 421.8
Q 1804.95 419.15 1802.05 416.35
L 1799.3 413.6 1799.05 413.55
Q 1797.65 413.7 1796.9 414.65 1796.4 415.35 1796.4 416.2 1796.35 416.3 1796.45 416.4
L 1801.3 421.15
Q 1801.8 421.65 1802.1 421.85
L 1802.9 422.6 1809 427.5
Q 1809.1 427.65 1809.4 427.85
L 1812.15 429.75
Q 1812.6 430.1 1812.85 430.2
L 1813.15 430.45 1815 431.6 1815.1 431.7 1818.65 433.35 1819 433.45 1819.3 433.6 1820.95 434.25
Q 1821.95 434.6 1821.9 434.5 1822.15 434.65 1822.4 434.65
L 1822.65 434.75 Z"/>
</g>

<g id="Symbol_30_0_Layer0_0_MEMBER_1_MEMBER_7_FILL">
<path fill="#0E0602" stroke="none" d="
M 141.7 217
Q 135.7 210.9 123.95 215.05 101.75 221.6 90.75 215.6
L 80.7 209.05
Q 79.75 214.65 69.15 233.7 63.3 246.3 66.45 259.3 70 251.7 76.85 245.25 81.25 241.05 85.4 234.65 87.65 233.85 90.4 234.35 91.4 234.5 92.55 234.75 99.6 236.35 111.45 240.65 123.25 244.95 140.45 240.45 146.95 238.3 143.75 221.05 143.2 218.55 141.7 217 Z"/>
</g>

<g id="Symbol_30_0_Layer0_0_MEMBER_1_MEMBER_8_FILL">
<path fill="#0E0602" stroke="none" d="
M 262.95 219.45
L 259.45 207.95
Q 240.4 223.6 217.4 216.7 194.4 209.8 194.1 221.7
L 193.2 231.7
Q 193.05 239.8 197.8 240.8 216.2 244.4 225.95 240.95 239.35 236 251.45 234.45 258.65 236.3 273.45 259.95 279.05 238.4 262.95 219.45 Z"/>
</g>

<g id="Symbol_30_0_Layer0_0_MEMBER_1_MEMBER_9_MEMBER_0_FILL">
<path fill="#F7BE98" stroke="none" d="
M 165.25 375.35
Q 175.65 383.7 185 376.45 194.35 369.15 196.65 354.35 185.85 367.1 181 370.35 176.25 373.75 171.5 370.45 165.85 367.05 154 354.9 154.9 366.95 165.25 375.35 Z"/>
</g>

<g id="Symbol_30_0_Layer0_0_MEMBER_1_MEMBER_9_MEMBER_1_FILL">
<path fill="#0E0602" stroke="none" d="
M 156.5 354.4
Q 154.25 351.4 153.65 352.55 152.55 358.1 170.15 372.35 176.35 377.05 182 372.35 197.45 358.95 197.35 351.7 196.8 350.45 195.3 352.6 187.5 362.4 181 366.8 176.25 370.2 171.5 366.9 165.35 363.2 156.5 354.4 Z"/>
</g>

<g id="Symbol_30_0_Layer0_0_MEMBER_1_MEMBER_10_STROKES_1_FILL">
<path fill="#000000" stroke="none" d="
M 1946.4 487.9
Q 1949.8 488.05 1953.1 487.75 1956.45 487.5 1959.5 487 1965.15 485.95 1970.5 484.1
L 1971.1 483.9 1979.1 480.55 1980.85 479.65 1989.5 474.05
Q 1992.35 472.05 1995.05 469.75
L 1996.7 468.35
Q 1997.3 467.85 1997.15 467.9
L 1999.3 465.8
Q 2000.55 464.55 2001.05 463.95
L 2002.25 462.5
Q 2002.65 461.95 2002.75 461.6 2002.9 460.95 2001.35 461.8 2000.55 462.25 1995.65 465.55 1991.6 468.15 1990.3 468.9 1987.9 470.4 1985 471.95
L 1979.2 474.85 1979.05 474.95 1969.6 479.1
Q 1966.85 480.1 1964.75 480.65 1962 481.45 1959.25 481.95 1956.75 482.4 1953.25 482.75 1950.5 482.95 1947.05 482.95 1944.4 482.9 1940.8 482.45 1937.75 482.1 1934.8 481.4 1931.9 480.75 1929.25 479.9 1926.75 479.1 1924.4 478.15 1920.45 476.55 1917.25 474.9
L 1914.7 473.5 1914.45 473.4 1913.85 473.3 1913.1 473.3 1912.45 473.4
Q 1911.9 473.45 1911.5 473.7 1910.8 474.05 1910.65 474.8 1910.6 475.35 1910.85 476.15
L 1911.6 477.4
Q 1911.75 477.6 1912 477.75
L 1912.85 478.25 1921.25 482.3 1921.55 482.4 1921.85 482.55 1922.4 482.75
Q 1924.6 483.65 1927.55 484.6 1930.35 485.55 1933.4 486.2 1936.5 486.95 1939.75 487.4 1943.6 487.85 1946.4 487.9 Z"/>
</g>

<g id="Symbol_30_0_Layer0_0_MEMBER_1_MEMBER_11_MEMBER_0_STROKES_1_FILL">
<path fill="#000000" stroke="none" d="
M 1794.15 379.1
L 1796.35 380.75 1796.65 380.95 1797.45 381.6
Q 1797.8 381.75 1797.9 381.95
L 1798.1 382.1 1798.3 382.2 1798.6 382.45 1800.55 383.65
Q 1801.2 384.05 1802.5 385.05 1803.65 385.85 1804.65 386.8
L 1808.65 390.95 1808.95 391.35 1809.25 391.65 1809.45 391.95 1809.8 392.35 1809.9 392.5 1810.15 392.5
Q 1811.4 392.25 1812.25 391.4 1812.85 390.8 1813.05 390.15 1813.15 390 1813.05 390
L 1812.95 389.8
Q 1812.65 389.5 1812.6 389.4
L 1807.4 383.9
Q 1806.6 383.15 1805.1 381.95
L 1801.35 379.4 1800.85 379.15 1800.7 379.05 1800.5 378.95 1799.2 378.5 1798.75 378.4 1798.5 378.3 1796.65 377.85
Q 1795.9 377.75 1795.95 377.8
L 1794.6 377.85
Q 1794.1 377.9 1793.8 378.2 1793.65 378.55 1793.95 378.85
L 1794.15 379.1 Z"/>
</g>

<g id="Symbol_30_0_Layer0_0_MEMBER_1_MEMBER_12_MEMBER_0_STROKES_1_FILL">
<path fill="#000000" stroke="none" d="
M 2090.05 370.5
L 2089.05 370.65
Q 2087.65 370.85 2086.15 371.4
L 2084.7 372 2082.85 373.3 2082.65 373.5
Q 2080.6 375 2078.45 377.35
L 2075.1 382.05
Q 2074.6 382.9 2074.2 383.75
L 2073.95 384.25 2073.9 384.4 2073.85 384.5 2073.95 384.65
Q 2075.45 386.45 2077.4 386.15
L 2077.55 386.05 2077.6 386 2077.85 385.5
Q 2078.1 384.85 2078.6 384.05 2079.05 383.15 2079.8 382.1 2080.55 381.05 2081.4 380.1 2082.6 378.8 2083.2 378.25
L 2088.4 374
Q 2090.05 372.65 2090 372.65
L 2090.9 371.75
Q 2091.25 371.2 2091.2 371 2091.2 370.7 2090.7 370.55
L 2090.05 370.5 Z"/>
</g>

<path id="Symbol_30_0_Layer0_0_MEMBER_1_1_STROKES" stroke="#000000" stroke-width="3" stroke-linejoin="round" stroke-linecap="round" fill="none" d="
M 325.65 278.7
Q 332.3 286.7 330 298.15 328.3 306.6 321.65 316.95 315.5 328.85 294.2 343.25"/>

<path id="Symbol_30_0_Layer0_0_MEMBER_1_2_STROKES" stroke="#000000" stroke-width="4" stroke-linejoin="round" stroke-linecap="round" fill="none" d="
M 44.65 185.2
Q 53.3 155.35 73.15 143.2 107.2 122.25 174.2 153.7 257.7 100.25 292.9 166.8
M 14.65 289.7
Q 13.1 293.95 12.75 298.15 11.3 314.25 26.95 330.05
M 283.85 380.8
Q 277.8 391.15 269.95 400.9"/>

<path id="Symbol_30_0_Layer0_0_MEMBER_1_3_STROKES" stroke="#000000" stroke-width="4.5" stroke-linejoin="round" stroke-linecap="round" fill="none" d="
M 269.95 400.9
Q 267.8 403.55 265.5 406.2 262.95 409.05 260.3 411.85 233.6 438.15 205.55 457.3 201.8 460.2 198 462.2 183.15 470.2 170.15 465.15 168.15 464.6 166.15 463.85 162.5 462.55 158.75 460.65 155.85 459 153 457.35 145.3 452.8 137.6 447.8 137.5 447.7 137.45 447.7 114.1 432.4 90.75 412.25"/>

<path id="Symbol_30_0_Layer0_0_MEMBER_1_MEMBER_7_1_STROKES" stroke="#000000" stroke-width="1" stroke-linejoin="round" stroke-linecap="round" fill="none" d="
M 123.95 215.05
Q 135.7 210.9 141.7 217 143.2 218.55 143.75 221.05 146.95 238.3 140.45 240.45 123.25 244.95 111.45 240.65 99.6 236.35 92.55 234.75 91.4 234.5 90.4 234.35 87.65 233.85 85.4 234.65 81.25 241.05 76.85 245.25 70 251.7 66.45 259.3 63.3 246.3 69.15 233.7 79.75 214.65 80.7 209.05
L 90.75 215.6
Q 101.75 221.6 123.95 215.05 Z"/>

<path id="Symbol_30_0_Layer0_0_MEMBER_1_MEMBER_8_1_STROKES" stroke="#000000" stroke-width="1" stroke-linejoin="round" stroke-linecap="round" fill="none" d="
M 259.45 207.95
L 262.95 219.45
Q 279.05 238.4 273.45 259.95 258.65 236.3 251.45 234.45 239.35 236 225.95 240.95 216.2 244.4 197.8 240.8 193.05 239.8 193.2 231.7
L 194.1 221.7
Q 194.4 209.8 217.4 216.7 240.4 223.6 259.45 207.95 Z"/>
</defs>

<g id="mitch_mc" transform="matrix( 0.5336761474609375, 0, 0, 0.5336761474609375, -72,0) ">
<g id="head_mc" transform="matrix( 1, 0, 0, 1, 134.5,0) ">
<g transform="matrix( 1, 0, 0, 1, 0,0) ">
<use xlink:href="#Symbol_30_0_Layer0_0_FILL"/>
</g>

<g transform="matrix( 1, 0, 0, 1, 0,0) ">
<use xlink:href="#Symbol_30_0_Layer0_0_MEMBER_0_FILL"/>
</g>

<g transform="matrix( 1, 0, 0, 1, 0,0) ">
<use xlink:href="#Symbol_30_0_Layer0_0_MEMBER_1_FILL"/>

<use xlink:href="#Symbol_30_0_Layer0_0_MEMBER_1_1_STROKES"/>

<use xlink:href="#Symbol_30_0_Layer0_0_MEMBER_1_2_STROKES"/>

<use xlink:href="#Symbol_30_0_Layer0_0_MEMBER_1_3_STROKES"/>
</g>

<g transform="matrix( 0.999969482421875, -0.000030517578125, 0.000030517578125, 0.999969482421875, -1771.15,-85.25) ">
<use xlink:href="#Symbol_30_0_Layer0_0_MEMBER_1_MEMBER_0_STROKES_1_FILL"/>
</g>

<g transform="matrix( 0.999969482421875, -0.000030517578125, 0.000030517578125, 0.999969482421875, -1771.15,-85.25) ">
<use xlink:href="#Symbol_30_0_Layer0_0_MEMBER_1_MEMBER_1_STROKES_1_FILL"/>
</g>

<g transform="matrix( 0.999969482421875, -0.000030517578125, 0.000030517578125, 0.999969482421875, -1771.15,-85.25) ">
<use xlink:href="#Symbol_30_0_Layer0_0_MEMBER_1_MEMBER_2_STROKES_1_FILL"/>
</g>

<g transform="matrix( 0.999969482421875, -0.000030517578125, 0.000030517578125, 0.999969482421875, -1771.15,-85.25) ">
<use xlink:href="#Symbol_30_0_Layer0_0_MEMBER_1_MEMBER_3_STROKES_1_FILL"/>
</g>

<g transform="matrix( 0.999969482421875, -0.000030517578125, 0.000030517578125, 0.999969482421875, -1771.15,-85.25) ">
<use xlink:href="#Symbol_30_0_Layer0_0_MEMBER_1_MEMBER_4_MEMBER_0_STROKES_1_FILL"/>
</g>

<g transform="matrix( 0.999969482421875, -0.000030517578125, 0.000030517578125, 0.999969482421875, -1771.15,-85.25) ">
<use xlink:href="#Symbol_30_0_Layer0_0_MEMBER_1_MEMBER_5_STROKES_1_FILL"/>
</g>

<g transform="matrix( 0.999969482421875, -0.000030517578125, 0.000030517578125, 0.999969482421875, -1771.15,-85.25) ">
<use xlink:href="#Symbol_30_0_Layer0_0_MEMBER_1_MEMBER_6_STROKES_1_FILL"/>
</g>

<g transform="matrix( 1, 0, 0, 1, 0,0) ">
<use xlink:href="#Symbol_30_0_Layer0_0_MEMBER_1_MEMBER_7_FILL"/>

<use xlink:href="#Symbol_30_0_Layer0_0_MEMBER_1_MEMBER_7_1_STROKES"/>
</g>

<g transform="matrix( 1, 0, 0, 1, 0,0) ">
<use xlink:href="#Symbol_30_0_Layer0_0_MEMBER_1_MEMBER_8_FILL"/>

<use xlink:href="#Symbol_30_0_Layer0_0_MEMBER_1_MEMBER_8_1_STROKES"/>
</g>

<g transform="matrix( 1, 0, 0, 1, 0,0) ">
<use xlink:href="#Symbol_30_0_Layer0_0_MEMBER_1_MEMBER_9_MEMBER_0_FILL"/>
</g>

<g transform="matrix( 1, 0, 0, 1, 0,0) ">
<use xlink:href="#Symbol_30_0_Layer0_0_MEMBER_1_MEMBER_9_MEMBER_1_FILL"/>
</g>

<g transform="matrix( 0.999969482421875, -0.000030517578125, 0.000030517578125, 0.999969482421875, -1771.15,-85.25) ">
<use xlink:href="#Symbol_30_0_Layer0_0_MEMBER_1_MEMBER_10_STROKES_1_FILL"/>
</g>

<g transform="matrix( 0.999969482421875, -0.000030517578125, 0.000030517578125, 0.999969482421875, -1771.15,-85.25) ">
<use xlink:href="#Symbol_30_0_Layer0_0_MEMBER_1_MEMBER_11_MEMBER_0_STROKES_1_FILL"/>
</g>

<g transform="matrix( 0.999969482421875, -0.000030517578125, 0.000030517578125, 0.999969482421875, -1771.15,-85.25) ">
<use xlink:href="#Symbol_30_0_Layer0_0_MEMBER_1_MEMBER_12_MEMBER_0_STROKES_1_FILL"/>
</g>
</g>
</g>
</svg>
