
<svg xmlns="http://www.w3.org/2000/svg" version="1.1" xmlns:xlink="http://www.w3.org/1999/xlink" preserveAspectRatio="none" x="0px" y="0px" width="353px" height="189px" viewBox="0 0 353 189">
<defs>
<g id="Symbol_26_0_Layer0_0_FILL">
<path fill="#F9CEB1" stroke="none" d="
M 347.2 358.75
Q 346.75 359.25 346.3 359.75
L 208.3 359.75 218.05 405.1
Q 223.05 425.15 224.2 452.85 224.2 452.9 224.2 452.95 224.2130859375 453.262109375 224.2 453.55 224.5984375 462.8431640625 224.55 473 224.5623046875 473.024609375 224.55 473.05 224.6623046875 473.2306640625 224.75 473.45 225.95 476.35 227.15 479.5
L 227.15 479.5
Q 227.15859375 479.6169921875 227.2 479.7 227.4142578125 480.2673828125 227.6 480.85 229.075 485.025 230.5 489.2 233.7287109375 498.98203125 236.55 510.4
L 236.55 510.4
Q 236.5662109375 510.4638671875 236.55 510.5 236.662109375 510.69375 236.75 510.9
L 237.15 511.75
Q 237.223046875 511.8958984375 237.3 512.05 237.7005859375 512.8048828125 238.25 513.65
L 242.7 519.7
Q 244.037109375 521.33828125 245.65 523.15 246.038671875 523.637109375 246.45 524.1 247.786328125 525.61171875 249.3 527.25 249.66796875 527.664453125 250.05 528.05 250.1986328125 528.237890625 250.35 528.4 256.71328125 535.2291015625 265.9 544.15
L 279.55 557.1
Q 280.04765625 557.5828125 280.55 558.05
L 280.6 558.05
Q 280.9205078125 558.355859375 281.25 558.65
L 281.9 559.25
Q 282.3908203125 559.733203125 282.9 560.2
L 320 593.5
Q 320.2947265625 593.78203125 320.6 594.05 320.63359375 594.0751953125 320.65 594.1 321.03359375 594.3751953125 321.4 594.65 322.6634765625 595.694921875 323.85 597 327.3 602.125 330.75 607.2 330.8744140625 606.590625 331 605.95 334.5 610.8869140625 335.45 617.2
L 336.55 617.55 336.6 617.55
Q 336.782421875 616.865625 336.95 616.15
L 343.35 596
Q 350.3162109375 576.6580078125 360.3 558.5 360.32578125 558.4482421875 360.35 558.4 360.37578125 558.37421875 360.4 558.35 360.68125 557.8375 360.95 557.3
L 370 542.2
Q 393.6 509.55 396.95 487 397.4 483.25 398.15 479.7 399.025 476.425 399.9 473.15 399.978125 472.91875 400.05 472.7 401.0375 470.1125 402 467.5 402.1875 467.15625 402.35 466.8
L 402.35 466.75
Q 401.0994140625 456.087109375 400.65 446.55
L 400.4 431.7
Q 400.46875 430.69375 400.5 429.7 400.95 416.2 403.35 405.45 403.15 405.15 403.05 404.85 402.5154296875 403.6349609375 402.6 401.2 402.597265625 401.1212890625 402.6 401.05 402.9 392.9 403.95 388.6 404.344921875 387.06953125 405.05 384.9 405.090625 384.877734375 405.1 384.85
L 406.35 381.1
Q 407.95 376.1 408.4 371.95 408.55 370.05 408.65 369.1 408.8 367.35 409.05 366.2 409.55 363.9 410.85 361.3 411.35 360.3 412.2 358.75
L 347.2 358.75 Z"/>

<path fill="#F6F4F3" stroke="none" d="
M 648.8 717.2
Q 649.1 715 648.6 712 647.95 708.55 647.65 706.8 646.9 702.6 647 696.45 647.35 687.85 647.4 683.5 647.4177734375 682.16015625 647.4 680.9 647.313671875 675.0181640625 646.45 670.7 645.65 666.65 642.85 659.2
L 638.4 647.35
Q 637.4763671875 644.8287109375 636.5 642.95 636.8642578125 642.8341796875 637.2 642.7 621.25 593.35 592.7 563.75 531.4201171875 540.676953125 446.75 498.65 446.1009765625 498.3236328125 445.45 498
L 427.45 468.2
Q 411.3 445.45 400.65 446.55 401.0994140625 456.087109375 402.35 466.75
L 402.35 466.8
Q 402.1875 467.15625 402 467.5 401.0375 470.1125 400.05 472.7 399.978125 472.91875 399.9 473.15 399.025 476.425 398.15 479.7 397.4 483.25 396.95 487 393.6 509.55 370 542.2
L 360.95 557.3
Q 360.68125 557.8375 360.4 558.35 360.37578125 558.37421875 360.35 558.4 360.32578125 558.4482421875 360.3 558.5 350.3162109375 576.6580078125 343.35 596
L 336.95 616.15
Q 336.782421875 616.865625 336.6 617.55
L 336.55 617.55 335.45 617.2
Q 334.5 610.8869140625 331 605.95 330.8744140625 606.590625 330.75 607.2 327.3 602.125 323.85 597 322.6634765625 595.694921875 321.4 594.65 321.03359375 594.3751953125 320.65 594.1 320.63359375 594.0751953125 320.6 594.05 320.2947265625 593.78203125 320 593.5
L 282.9 560.2
Q 282.3908203125 559.733203125 281.9 559.25
L 281.25 558.65
Q 280.9205078125 558.355859375 280.6 558.05
L 280.55 558.05
Q 280.04765625 557.5828125 279.55 557.1
L 265.9 544.15
Q 256.71328125 535.2291015625 250.35 528.4 250.1986328125 528.237890625 250.05 528.05 249.66796875 527.664453125 249.3 527.25 247.786328125 525.61171875 246.45 524.1 246.038671875 523.637109375 245.65 523.15 244.037109375 521.33828125 242.7 519.7
L 238.25 513.65
Q 237.7005859375 512.8048828125 237.3 512.05 237.223046875 511.8958984375 237.15 511.75
L 236.75 510.9
Q 236.662109375 510.69375 236.55 510.5 236.5662109375 510.4638671875 236.55 510.4
L 236.55 510.4
Q 233.7287109375 498.98203125 230.5 489.2 229.075 485.025 227.6 480.85 227.4142578125 480.2673828125 227.2 479.7 227.15859375 479.6169921875 227.15 479.5
L 227.15 479.5
Q 225.95 476.35 224.75 473.45 224.6623046875 473.2306640625 224.55 473.05 224.5623046875 473.024609375 224.55 473 224.5 472.85 224.45 472.7 224.158984375 472.017578125 223.85 471.35
L 222.8 453 222.75 452.95
Q 222.7455078125 452.957421875 222.75 452.95
L 221.9 451.35
Q 219.515234375 452.220703125 216.7 454.65 216.490234375 454.8556640625 216.25 455.05 215.57734375 455.67265625 214.85 456.4 214.75 456.5 214.6 456.65 210.88359375 460.36640625 206.5 466.45
L 203.95 470.15
Q 203.7025390625 470.55703125 203.4 470.95
L 202.3 472.7
Q 201.973828125 473.1931640625 201.65 473.7 200.4357421875 475.566796875 199.2 477.6
L 198.55 478.6
Q 198.265234375 479.1626953125 197.95 479.7 197.5978515625 480.2841796875 197.2 480.85
L 183.75 505.35
Q 183.39375 506.08203125 183 506.8 182.9375 506.9791015625 182.85 507.15
L 162.95 517.8
Q 162.60859375 518.01015625 162.25 518.2 161.6935546875 518.49453125 161.15 518.8
L 144.6 527.4
Q 87.430859375 556.9912109375 37.25 578.2 10.95 613.75 0 653.45
L 0 653.45
Q -0.0427734375 654.5359375 -0.1 655.6 -0.3796875 656.1583984375 -0.85 657.1 -1.2064453125 657.9216796875 -1.7 659 -3.95 664.1 -4.75 667 -5.6 670.5 -5.7 675.6 -5.7 678.5 -5.65 684.3 -5.7 691.5 -5.65 692.45 -5.6267578125 692.8068359375 -5.6 693.15 -5.51328125 694.0443359375 -5.4 694.85
L -5.4 694.9
Q -5.5296875 695.0205078125 -5.65 695.15 -7.0380859375 696.487890625 -8 698.05 -7.8123046875 698.265234375 -7.7 698.4 -6.396484375 699.9763671875 -5.7 701.5 -5.1861328125 702.5158203125 -4.95 703.5 -4.7 704.85 -4.7 707.5
L -4.65 716
Q -3.2228515625 716.8265625 -1.45 717.4 -1.0966796875 723.9375 -0.5 729
L 22.05 729
Q 23.36484375 726.5162109375 24.75 723.65 25.13359375 723.80703125 25.45 723.9 29.2 725.1 34.2 725.25 36.75 725.3 43.15 724.9 48.0849609375 724.619921875 53.6 724.45 54.6322265625 724.664453125 55.75 724.8 57.8 725.05 61.75 725.05
L 129.45 725
Q 131.6791015625 725.0541015625 134 725.1 141.025 725.164453125 146.25 725
L 146.9 725
Q 151 725 153.2 724.75 154.1232421875 724.6294921875 154.95 724.45 159.520703125 723.9759765625 163.55 723.15 165.873046875 723.4927734375 168.65 723.7 200 725.8 243.45 726.55 268.4 727 318.3 727.45 322.5 727.55 324.85 727.3 327.0462890625 727.0216796875 328.85 726.35 339.8998046875 726.2623046875 349.8 725.5 351.154296875 725.9138671875 352.7 726.15 355 726.5 359.2 726.55
L 381.4 726.85
Q 508.4 728.75 571.95 728.9 576.55 728.95 579.25 728.5 582.31953125 728.001171875 584.55 726.75 585.69375 726.8 587 726.8
L 618.55 726.9
Q 621.315625 726.9 623.05 726.8 627.688671875 728.1447265625 634.2 727.75 640.25 727.45 643.5 725.45 645.65 724.1 647.05 721.9 648.45 719.7 648.8 717.2 Z"/>
</g>

<g id="Symbol_26_0_Layer0_1_FILL">
<path fill="#E2DBD9" stroke="none" d="
M 202.3 472.7
Q 200.15 475.95 197.95 479.7 191.05 491.15 182.85 507.15 103.9 550 37.25 578.2 10.95 613.75 0 653.45 0.4298828125 653.6130859375 0.85 653.75 1.5736328125 652.5556640625 2.35 651.65 4.35 649.3 7.2 647.85 10.05 646.45 13.1 646.3
L 13.05 646.4
Q 16.55 646.05 20.45 648.35 22.65 649.65 26.9 653.25 33.5 659.05 41.1 663.9 43.6505859375 665.632421875 45.45 666.1 63.5205078125 618.8294921875 88.45 584.2 109.15 559.85 165.7 533.35 167.4 532.55 169.2 531.75 170.2 531.25 171.25 530.8 170.65 532.1 170 533.45
L 170 533.5
Q 168.9 535.7 167.85 538 154.15 562.05 156.4 565.95 158.35 569.95 163.4 568.6 166.2 567.8 170 565.4
L 168.9 563.6
Q 164 562.3 171.6 548.4 179.2 534.45 187.55 520.3 194 509.4 208.85 479.7 210.5 476.3 212.3 472.7 215.25 466.8 218.45 460.25 220.55 456.65 222.75 452.95
L 221.9 451.35
Q 218.75 452.5 214.85 456.4 214.75 456.5 214.6 456.65 209.15 462.1 202.3 472.7 Z"/>

<path fill="#F7BE98" stroke="none" d="
M 260.5 480.4
Q 259.95 476.1 259.55 471.85
L 258.8 461.65
Q 258.75 461.2 258.75 460.75 265.35 449.45 272 447.75 290.55 440.05 307.8 405.1 325.25 374.55 346.3 359.75
L 208.3 359.75 218.05 405.1
Q 223.05 425.15 224.2 452.85 224.2 452.9 224.2 452.95 224.6 462.5 224.55 473 224.65 473.2 224.75 473.45 225.95 476.35 227.15 479.5 227.15 479.6 227.2 479.7 232.3 493.2 236.55 510.4 236.85 511.15 237.3 512.05 243.35 523.45 280.55 558.05
L 280.6 558.05
Q 281.7 559.1 282.9 560.2 282.7 559.8 282.55 559.4 282.4 559 282.25 558.65 282.1 558.3 281.95 557.95 281.6 557.2 281.3 556.45 281.15 556.1 281 555.75 280.85 555.35 280.7 555 280.55 554.65 280.4 554.3 280.25 553.9 280.15 553.6 280 553.25 279.9 553 279.75 552.65 279.6 552.35 279.45 552 279.35 551.65 279.2 551.3 279.1 551 278.75 550.2 278.45 549.4 278.35 549.1 278.25 548.85 278.1 548.5 277.95 548.15 277.85 547.8 277.75 547.55 277.6 547.2 277.5 546.9 277.35 546.55 277.25 546.25 277.1 545.95 277 545.65 276.9 545.35 276.8 545.1 276.7 544.8 276.6 544.5 276.35 543.9 276.15 543.25 276.05 543 275.95 542.75 275.7 542.15 275.5 541.55 275.4 541.25 275.3 541 275.2 540.7 275.1 540.4 275 540.15 274.95 539.9 274.8 539.6 274.75 539.3
L 260.5 480.4 Z"/>

<path fill="#F9CEB1" stroke="none" d="
M 347.2 358.75
Q 346.75 359.25 346.3 359.75 325.25 374.55 307.8 405.1 290.55 440.05 272 447.75 265.35 449.45 258.75 460.75 258.75 461.2 258.8 461.65
L 259.55 471.85
Q 259.95 476.1 260.5 480.4
L 274.75 539.3
Q 274.8 539.6 274.95 539.9 275 540.15 275.1 540.4 275.2 540.7 275.3 541 275.4 541.25 275.5 541.55 275.7 542.15 275.95 542.75 276.05 543 276.15 543.25 276.35 543.9 276.6 544.5 276.7 544.8 276.8 545.1 276.9 545.35 277 545.65 277.1 545.95 277.25 546.25 277.35 546.55 277.5 546.9 277.6 547.2 277.75 547.55 277.85 547.8 277.95 548.15 278.1 548.5 278.25 548.85 278.35 549.1 278.45 549.4 278.75 550.2 279.1 551 279.2 551.3 279.35 551.65 279.45 552 279.6 552.35 279.75 552.65 279.9 553 280 553.25 280.15 553.6 280.25 553.9 280.4 554.3 280.55 554.65 280.7 555 280.85 555.35 281 555.75 281.15 556.1 281.3 556.45 281.6 557.2 281.95 557.95 282.1 558.3 282.25 558.65 282.4 559 282.55 559.4 282.7 559.8 282.9 560.2 298.95 575.05 320.6 594.05 321 594.35 321.4 594.65 326.6 598.95 331 607.7 333.1 611.9 335 617.1
L 336.6 617.55
Q 344.85 586.6 360.3 558.5 360.35 558.4 360.4 558.35 364.9 550.15 370 542.2 393.6 509.55 396.95 487 397.4 483.25 398.15 479.7 398.95 476.05 400.05 472.7 401.05 469.65 402.35 466.8 401.1 456.1 400.65 446.55 400.25 437.65 400.5 429.7 400.95 416.2 403.35 405.45 403.15 405.15 403.05 404.85 402.5 403.6 402.6 401.05 402.9 392.9 403.95 388.6 404.35 387.05 405.1 384.85
L 406.35 381.1
Q 407.95 376.1 408.4 371.95 408.55 370.05 408.65 369.1 408.8 367.35 409.05 366.2 409.55 363.9 410.85 361.3 411.35 360.3 412.2 358.75
L 347.2 358.75 Z"/>

<path fill="#F6F4F3" stroke="none" d="
M 648.8 717.2
Q 649.1 715 648.6 712 647.95 708.55 647.65 706.8 646.9 702.6 647 696.45 647.35 687.85 647.4 683.5 647.5 675.95 646.45 670.7 645.65 666.65 642.85 659.2
L 638.4 647.35
Q 637.4763671875 644.8287109375 636.5 642.95 636.8642578125 642.8341796875 637.2 642.7 621.25 593.35 592.7 563.75 530.95 540.5 445.45 498
L 427.45 468.2
Q 411.3 445.45 400.65 446.55 401.1 456.1 402.35 466.8 401.05 469.65 400.05 472.7 398.95 476.05 398.15 479.7 397.4 483.25 396.95 487 393.6 509.55 370 542.2 364.9 550.15 360.4 558.35 360.35 558.4 360.3 558.5 344.85 586.6 336.6 617.55
L 335 617.1
Q 333.1 611.9 331 607.7 326.6 598.95 321.4 594.65 321 594.35 320.6 594.05 298.95 575.05 282.9 560.2
L 276.5 562.45 280.6 558.05 280.55 558.05
Q 243.35 523.45 237.3 512.05 236.85 511.15 236.55 510.4 232.3 493.2 227.2 479.7 227.15 479.6 227.15 479.5 225.95 476.35 224.75 473.45 224.65 473.2 224.55 473 224.5 472.85 224.45 472.7 221.55 465.9 218.45 460.25 215.25 466.8 212.3 472.7 210.5 476.3 208.85 479.7 194 509.4 187.55 520.3 179.2 534.45 171.6 548.4 164 562.3 168.9 563.6
L 170 565.4
Q 166.2 567.8 163.4 568.6 158.35 569.95 156.4 565.95 154.15 562.05 167.85 538 168.9 535.7 170 533.5
L 170 533.45
Q 170.65 532.1 171.25 530.8 170.2 531.25 169.2 531.75 167.4 532.55 165.7 533.35 109.15 559.85 88.45 584.2 63.5205078125 618.8294921875 45.45 666.1 43.6505859375 665.632421875 41.1 663.9 33.5 659.05 26.9 653.25 22.65 649.65 20.45 648.35 16.55 646.05 13.05 646.4
L 13.1 646.3
Q 10.05 646.45 7.2 647.85 4.35 649.3 2.35 651.65 1.5736328125 652.5556640625 0.85 653.75 0.470703125 654.441015625 0.1 655.2 -0.35 656.05 -1.7 659 -3.95 664.1 -4.75 667 -5.6 670.5 -5.7 675.6 -5.7 678.5 -5.65 684.3 -5.7 691.5 -5.65 692.45 -5.5671875 693.719921875 -5.4 694.85
L -5.4 694.9
Q -6.952734375 696.3431640625 -8 698.05 -7.8123046875 698.265234375 -7.7 698.4 -5.55 701 -4.95 703.5 -4.7 704.85 -4.7 707.5
L -4.65 716
Q -1.4783203125 717.8548828125 3.7 718.4 13.55 719.45 14.85 719.8 16.75 720.35 20.15 721.8 23.75 723.4 25.45 723.9 29.2 725.1 34.2 725.25 36.75 725.3 43.15 724.9 48.0849609375 724.619921875 53.6 724.45 54.6322265625 724.664453125 55.75 724.8 57.8 725.05 61.75 725.05
L 129.45 725
Q 131.6791015625 725.0541015625 134 725.1 141.025 725.164453125 146.25 725
L 146.9 725
Q 151 725 153.2 724.75 154.1232421875 724.6294921875 154.95 724.45 159.520703125 723.9759765625 163.55 723.15 165.873046875 723.4927734375 168.65 723.7 200 725.8 243.45 726.55 268.4 727 318.3 727.45 322.5 727.55 324.85 727.3 327.0462890625 727.0216796875 328.85 726.35 339.8998046875 726.2623046875 349.8 725.5 351.154296875 725.9138671875 352.7 726.15 355 726.5 359.2 726.55
L 381.4 726.85
Q 508.4 728.75 571.95 728.9 576.55 728.95 579.25 728.5 582.31953125 728.001171875 584.55 726.75 585.69375 726.8 587 726.8
L 618.55 726.9
Q 621.315625 726.9 623.05 726.8 627.688671875 728.1447265625 634.2 727.75 640.25 727.45 643.5 725.45 645.65 724.1 647.05 721.9 648.45 719.7 648.8 717.2 Z"/>
</g>

<g id="Symbol_26_0_Layer0_1_MEMBER_0_FILL">
<path fill="#E2DCD9" stroke="none" d="
M 335.85 621.95
Q 335.75 612.65 331 605.95 317.2 676.4 327.25 710
L 335.3 710.2
Q 326.7 661.35 335.85 621.95 Z"/>
</g>

<g id="Symbol_26_0_Layer0_1_MEMBER_1_FILL">
<path fill="#E2DCD9" stroke="none" d="
M 176.6 519.7
Q 179.8 513.1 182.85 507.15 172.45 512.8 162.25 518.2 95.1 553.75 37.25 578.2 10.95 613.75 0 653.45
L 0 653.45
Q -3.271484375 706.22421875 -0.5 729
L 22.05 729
Q 24.6927734375 724.008203125 27.6 717.55
L 44.35 669.05
Q 62.75 619.9 88.45 584.2 110.15 558.65 171.25 530.8 173.95 525.05 176.6 519.7 Z"/>
</g>

<g id="Symbol_26_0_Layer0_1_MEMBER_1_MEMBER_0_STROKES_1_FILL">
<path fill="#000000" stroke="none" d="
M 2045.75 541.2
Q 2045.7 540.85 2045.05 541.15
L 2044.25 541.65 2042.15 543.6 2039.65 546.65 2039.5 546.8 2039.4 547 2038.8 547.8 2034.9 556.85 2034.4 558.5 2034.3 558.75 2034.25 559
Q 2033.05 562.95 2032.3 567.15
L 2031.7 571.05 2031.85 571.3
Q 2032.85 572.3 2034.05 572.25 2034.9 572.25 2035.55 571.75
L 2035.7 571.6 2035.85 570.5 2035.85 570.25 2037.65 561.6 2037.75 561.35 2038 560.35 2039.65 555.5 2040.2 554.25 2040.25 554.05 2041.75 550.8 2042.1 550.2 2045.65 542.25
Q 2045.9 541.5 2045.75 541.2 Z"/>
</g>

<g id="Symbol_26_0_Layer0_1_MEMBER_1_MEMBER_1_STROKES_1_FILL">
<path fill="#000000" stroke="none" d="
M 2014 634.6
Q 2012.7 635.15 2010.85 636.15 2009.2 637.1 2008.25 637.8
L 2006.05 639.45 2004.05 641.75
Q 2002.25 644.1 2002.55 643.95
L 2002.4 644.35 2002.2 644.7 2001.95 645.35
Q 2001.8 645.95 2001.9 646.25 2002.05 646.55 2002.6 646.4 2003.3 646.1 2004.2 645.45
L 2008.2 642.85 2008.3 642.8 2008.65 642.55 2008.85 642.35 2009.7 641.65 2009.95 641.5 2010.4 641.15
Q 2011.7 640.25 2012.65 639.75 2014.3 638.85 2015.45 638.35
L 2018.4 637.3 2021.05 636.7 2021.35 636.6 2021.65 636.6 2022.6 636.45 2023 636.35 2023.55 636.3 2023.8 636.3 2023.95 636.1
Q 2024.5 634.9 2024.25 633.75 2024.1 632.95 2023.6 632.4
L 2023.45 632.3 2023.2 632.3 2020.7 632.65 2020.35 632.75
Q 2019.25 632.95 2017.35 633.45 2016 633.8 2014 634.6 Z"/>
</g>

<g id="Symbol_26_0_Layer0_1_MEMBER_1_MEMBER_2_STROKES_1_FILL">
<path fill="#000000" stroke="none" d="
M 1859.75 551.15
L 1855.9 545.25
Q 1855.05 544.25 1854.65 544.1 1854.2 543.95 1854.45 545 1854.55 545.55 1855.7 548.7
L 1867.55 582.4 1871.3 596.45 1871.55 596.7
Q 1873 597.85 1874.05 597.3 1874.85 596.85 1875.15 595.75 1875.25 595.6 1875.2 595.45
L 1866.5 566.3 1863.2 557.85 1859.85 551.4 1859.75 551.15 Z"/>
</g>

<g id="Symbol_26_0_Layer0_1_MEMBER_1_MEMBER_3_STROKES_1_FILL">
<path fill="#000000" stroke="none" d="
M 1872.25 637.7
L 1872.65 637.75 1877.1 638
Q 1879.7 638.2 1881.9 638.5 1884.4 638.8 1887.25 639.35 1890.7 640.1 1892.55 640.6 1894.7 641.2 1897.05 642
L 1905.5 645.15
Q 1907.55 645.95 1909.35 646.75
L 1909.95 647.05 1911.6 647.65
Q 1912.6 648 1912.9 647.9 1913.3 647.75 1912.8 647.05
L 1912 646.15 1909.5 644.05 1909.35 643.9 1903.3 640.1 1893.9 636.8
Q 1889.85 635.8 1888.25 635.5 1885.85 635 1882.55 634.55 1879.45 634.15 1877.5 634
L 1873.85 633.75
Q 1873.05 633.75 1872.8 633.7
L 1872.4 633.7 1872.1 633.85
Q 1870.95 634.95 1871.15 636.15 1871.3 636.95 1872.05 637.6
L 1872.25 637.7 Z"/>
</g>

<g id="Symbol_26_0_Layer0_1_MEMBER_1_MEMBER_4_STROKES_1_FILL">
<path fill="#000000" stroke="none" d="
M 1961.5 680.45
L 1959 678.2
Q 1958.95 678.15 1958.85 678.2
L 1958.75 678.2
Q 1957.5 678.7 1956.9 679.7 1956.5 680.45 1956.5 681.2
L 1956.5 681.3 1958.3 682.9 1958.4 683.05 1958.6 683.25
Q 1959.65 684.3 1960.5 685.35 1961.55 686.65 1962.45 688.05 1964.1 690.4 1965.6 693.4
L 1966.75 695.8 1967.55 697.1 1967.75 697.5 1969.25 700
Q 1969.65 700.65 1969.65 700.6 1970.7 702.35 1971.35 702.4 1971.75 702.4 1971.8 701.85
L 1971.85 701.05 1971.75 699.9
Q 1971.5 698.1 1971.1 696.35
L 1970.6 694.55 1969.85 692.9 1969.55 692.4 1969.3 691.8 1965.85 685.9
Q 1965.05 684.6 1963.7 682.9 1962.45 681.4 1961.5 680.45 Z"/>
</g>

<g id="Symbol_26_0_Layer0_1_MEMBER_1_MEMBER_5_FILL">
<path fill="#E2DBD9" stroke="none" d="
M 187.5 506.7
Q 187.15 506 186.4 506.2
L 186.3 506.25
Q 186.05 506.2 185.75 506.4 185.55 506.55 185.35 506.85
L 184.2 508.95
Q 183.65 510.25 183.55 510.7
L 183.35 511.85
Q 183.35 512.7 183.6 513 184 513.5 184.6 513.4 185.25 513.25 185.35 512.6
L 185.5 511.5 185.75 510.65 186.1 509.95 186.15 509.65
Q 186.3 509.5 186.35 509.5 186.35 509.3 186.5 509.05 186.75 508.65 186.8 508.55
L 187 508.15 187.3 507.9
Q 187.55 507.7 187.65 507.35 187.7 507 187.5 506.7 Z"/>
</g>

<path id="Symbol_26_0_Layer0_1_1_STROKES" stroke="#000000" stroke-width="1" stroke-linejoin="round" stroke-linecap="round" fill="none" d="
M 218.05 405.1
L 208.3 359.75"/>

<path id="Symbol_26_0_Layer0_1_MEMBER_1_1_STROKES" stroke="#000000" stroke-width="4" stroke-linejoin="round" stroke-linecap="round" fill="none" d="
M 208.75 360.75
L 218.05 405.1
Q 223.05 425.15 224.2 452.85 224.2 452.9 224.2 452.95 224.6 462.55 224.55 473.05
M 221.9 451.35
Q 214.75 454 203.6 470.7 202.65 472.15 201.65 473.7 193.4 486.55 183.1 506.7 182.95 506.9 182.85 507.15 179.8 513.1 176.6 519.7 173.95 525.05 171.25 530.8 169.55 534.3 167.85 538 154.15 562.05 156.4 565.95 158.35 569.95 163.4 568.6 175.95 565.15 208 528.2 210.95 549.6 236.8 550.55
M 236.6 510.4
Q 237.8 513.7 242.7 519.7 253.6 533.15 282.9 560.2 299.25 575.3 321.35 594.7
M 387.7 549
Q 419.3 547.5 423.95 522.7 454.1 550.55 465.25 556.9 466.8 557.8 467.95 558.25 472.9 559.9 476 558.3 479.9 554.95 476 548.75
L 427.45 468.2
Q 411.3 445.45 400.65 446.55 401.1 456.15 402.35 466.8
M 396.95 487
Q 393.6 509.55 370 542.2 343.6 583.3 333.4 630.7 329 654.6 334.25 706.7
M 410.5 359.45
Q 398.65 407.5 400.65 446.55"/>

<path id="Symbol_26_0_Layer0_1_MEMBER_1_2_STROKES" stroke="#000000" stroke-width="5" stroke-linejoin="round" stroke-linecap="round" fill="none" d="
M 0 653.45
Q 10.95 613.75 37.25 578.2 95.1 553.75 162.25 518.2 172.45 512.8 182.85 507.15
M 0.025 653.45
Q -7.8720703125 686.10234375 -4.85 715.05
M 446.75 498.65
Q 531.45 540.7 592.7 563.75 621.25 593.35 637.2 642.7 655.581640625 696.4591796875 647 727.2"/>
</defs>

<g id="mitch_mc" transform="matrix( 0.5336761474609375, 0, 0, 0.5336761474609375, 4.25,-191.45) ">
<g transform="matrix( 1, 0, 0, 1, 0,0) ">
<use xlink:href="#Symbol_26_0_Layer0_0_FILL"/>
</g>

<g transform="matrix( 1, 0, 0, 1, 0,0) ">
<use xlink:href="#Symbol_26_0_Layer0_1_FILL"/>

<use xlink:href="#Symbol_26_0_Layer0_1_1_STROKES"/>
</g>

<g transform="matrix( 1, 0, 0, 1, 0,0) ">
<use xlink:href="#Symbol_26_0_Layer0_1_MEMBER_0_FILL"/>
</g>

<g transform="matrix( 1, 0, 0, 1, 0,0) ">
<use xlink:href="#Symbol_26_0_Layer0_1_MEMBER_1_FILL"/>

<use xlink:href="#Symbol_26_0_Layer0_1_MEMBER_1_1_STROKES"/>

<use xlink:href="#Symbol_26_0_Layer0_1_MEMBER_1_2_STROKES"/>
</g>

<g transform="matrix( 1, 0, 0, 1, -1636.65,-85.25) ">
<use xlink:href="#Symbol_26_0_Layer0_1_MEMBER_1_MEMBER_0_STROKES_1_FILL"/>
</g>

<g transform="matrix( 1, 0, 0, 1, -1636.65,-85.25) ">
<use xlink:href="#Symbol_26_0_Layer0_1_MEMBER_1_MEMBER_1_STROKES_1_FILL"/>
</g>

<g transform="matrix( 1, 0, 0, 1, -1636.65,-85.25) ">
<use xlink:href="#Symbol_26_0_Layer0_1_MEMBER_1_MEMBER_2_STROKES_1_FILL"/>
</g>

<g transform="matrix( 1, 0, 0, 1, -1636.65,-85.25) ">
<use xlink:href="#Symbol_26_0_Layer0_1_MEMBER_1_MEMBER_3_STROKES_1_FILL"/>
</g>

<g transform="matrix( 1, 0, 0, 1, -1636.65,-85.25) ">
<use xlink:href="#Symbol_26_0_Layer0_1_MEMBER_1_MEMBER_4_STROKES_1_FILL"/>
</g>

<g transform="matrix( 1, 0, 0, 1, 0,0) ">
<use xlink:href="#Symbol_26_0_Layer0_1_MEMBER_1_MEMBER_5_FILL"/>
</g>
</g>
</svg>
