
<svg xmlns="http://www.w3.org/2000/svg" version="1.1" xmlns:xlink="http://www.w3.org/1999/xlink" preserveAspectRatio="none" x="0px" y="0px" width="207px" height="274px" viewBox="0 0 207 274">
<defs>
<g id="Symbol_29_0_Layer0_0_FILL">
<path fill="#FBCBAA" stroke="none" d="
M 324.5 360.85
Q 324.5244140625 360.8296875 324.55 360.8 360.991796875 330.678125 348.75 298.25 344.85 288.9 341 286.5 330.3 276.9 317.75 306.25 316.45 289.4 318 272.5 319.7 245.65 315.75 230.5 303.15 184.7 286.5 164 277.5 148.75 254.2 156.3 230.9 163.8 199.5 167.55 168.1 171.25 135.25 150 127.45 145.7 118.3 147 110.9 148.05 102.65 152.75 102 153.1 101.35 153.5 92.1 159 81.75 169 62.3 191.3 56.1 219.75 48.85 249.1 49.8 276.7 50.9 308.6 48.75 320
L 44.2 311.2
Q 30.4 284.5 17.5 309.25 4.5 343.3 47.7 376.05 48.169140625 377.7857421875 48.65 379.5 60.862109375 422.70390625 82.6 451.8 94.2 467.3 108.6 478.8 141.1 506.7 181.7 506.95 184.7 506.95 187.7 506.85 230.05 505.25 256.35 481.15 276.45 462.8 290.85 442.25 316.85 405.15 324.5 360.85
M 150.45 222.4
L 150.45 222.3
Q 152.4748046875 222.2220703125 154.25 223.05 154.76328125 223.290234375 155.25 223.6 157.55 225.1 157.9 227.45 158.05 228.65 157.65 230.2 157.5 230.85 156.75 232.9 155.4 236.75 154.7 240.45 154.2 243.2 153.9 244.1 153.3 246.1 152.15 247.25 150.5494140625 248.886328125 147.8 249.15 146.7341796875 249.3009765625 145.45 249.2 145.0109375 249.1662109375 144.45 249.05 143.3900390625 248.9310546875 141.9 248.6 139.4 248.1 138.35 247.95 135.25 247.55 131.3 248.15 128.95 248.55 124.3 249.7 117.896484375 251.3390625 113.85 252.55 112.6220703125 252.9552734375 111.6 253.3 109.5 254 105.9 255.4 101.9 256.95 100.25 257.55 97.5 258.55 96.1 259.05 93.7 259.95 92.05 260.75 90.4 261.6 89.6 262 89.5 262.05 89.4 262.1 88.55 262.75 87.75 263.4 86.2 264.55 84.9 265.45 82.8 266.95 81.3 267.3 80.62265625 267.4693359375 79.9 267.45 79.0013671875 267.4458984375 78.05 267.1 76.4 266.55 75.35 265.25 75.2876953125 265.179296875 75.2 265.1 74.70625 264.473046875 74.4 263.7 74.11171875 263.0314453125 74 262.25 73.75 260.55 74.4 258.95 74.6 258.5 75.3 257.25 75.348828125 257.17109375 75.4 257.1 75.568359375 256.8173828125 75.7 256.55 76.0201171875 255.9720703125 76.15 255.55 76.35 255 76.5 254.1 76.5865234375 253.5224609375 76.65 253.1 76.7078125 252.811328125 76.75 252.6 77.25 250.2 79.05 247.25 82.58984375 241.63515625 88.45 237.15 89.787890625 236.1591796875 91.25 235.2 94.65 232.95 97.45 232.4
L 97.5 232.55
Q 97.7 232.55 97.9 232.55 98.1 232.55 98.3 232.6 98.8 232.05 99.4 231.6 100.45 230.85 102.25 230.15 103.25 229.75 105.3 228.95 106.65 228.4 109.25 227.1 110.207421875 226.66875 111.15 226.3 113.4736328125 225.5314453125 115.85 225.25 117.2640625 225.0853515625 118.7 225.1 118.7 225.05 118.75 225.05
L 118.75 225 118.8 225
Q 119.0693359375 224.790625 119.35 224.6 120.0142578125 224.1802734375 120.75 223.9 122.05 223.4 124.8 223.2 128.95 222.9 135.25 222.9
L 135.25 222.7
Q 136.6 222.85 138.9 222.75 141.7 222.65 142.5 222.65 143.3630859375 222.6845703125 144.15 222.75 145.638671875 222.9744140625 146.85 223.4 147.2 223.1 147.65 222.85
L 147.7 222.8
Q 149.125390625 222.056640625 150.45 222.4
M 284.25 237.55
L 284.35 237.65
Q 284.5685546875 237.836328125 284.75 238 287.95 240.85 291.4 245.95 294.5 250.65 294.8 253.85 294.85 254.3 294.85 254.8 295.8 255.75 296.15 257.15 296.3 257.8 296.35 258.75 296.35 259.25 296.35 260.35 296.35 260.95 296.4 262.15 296.35 263.05 295.95 263.85
L 296.15 264.45
Q 296.3705078125 265.111328125 296.4 265.55 296.45 265.7173828125 296.45 265.85
L 296.25 266.75
Q 296.2287109375 266.7951171875 296.2 266.85 295.8234375 267.6212890625 295.35 268 295.2 268.15 295.05 268.25
L 295.45 268.75 295.5 269 295.6 269.1 295.6 269.4 295.65 269.5 295.6 269.75 295.5 270
Q 295.4703125 270.0494140625 295.45 270.1 295.3400390625 270.2599609375 295.3 270.3 295.1 270.5 295 270.5
L 294.95 270.55
Q 294.85 270.5 294.65 270.6
L 294.45 270.55 294.05 270.4 293.95 270.35 293.9 270.25 293.75 270.1 293.7 269.9 293.45 269.55 293.4 269.45 293.35 269.3 293.15 268.95 293.05 268.7
Q 292.787890625 268.65234375 292.5 268.55 292.2142578125 268.480859375 291.9 268.35
L 291.35 268 291 267.55
Q 290.7095703125 267.1767578125 290.5 266.8 290.4841796875 266.7267578125 290.45 266.65 290.3474609375 266.598828125 290.2 266.55 290.121875 266.5244140625 290 266.5 288.5 266.1 287.55 264.95
L 286 263.15
Q 285.9240234375 263.1421875 285.85 263.1 283.46171875 262.844140625 280.7 261.1 276.7 258.2 274.7 256.9 270.2 254.05 263.1 252.75 254.75 251.6 250.6 250.95 248.4 250.55 246.55 250.25 246.45 250.25 246.35 250.25 243.7 249.75 241.75 249.45 241.55 249.4 241.4 249.4
L 242.75 249.65
Q 241.2 249.4 239.9 249.2 237.721875 248.881640625 236.05 248.65 232.813671875 248.21640625 231.65 248.15 229.9 248.1 228.35 248.15 225.7 248.25 224.95 248.25 223 248.15 221.7 247.45 219.45 246.3 217.95 242.65 215.75 237.15 215.4 236.65 215.3318359375 236.5478515625 214.35 235.25 213.9376953125 234.694921875 213.3 233.85 212 232.2 211.6 230.85 210.95 228.65 212.25 226.45 212.4435546875 226.1169921875 212.65 225.8 213.8484375 224.21484375 215.75 223.75 216.25 223.65 217.65 223.55
L 217.7 223.55
Q 218.85 223.45 219.5 223.25 219.564453125 223.237109375 219.7 223.15 220.2265625 222.9681640625 221.6 222.3
L 220.5 222.65
Q 222.35 222 222.55 221.95 223.2 221.75 223.75 221.8
L 223.7 222.1
Q 224.6 222.15 225.5 222.2 238.196484375 222.9078125 246.5 224 247.591796875 224.1501953125 248.6 224.3 262.25 226.35 272.55 230.65 273.1369140625 230.8970703125 273.7 231.15 274.853125 231.66171875 275.9 232.2 280.860546875 234.639453125 284.25 237.55 Z"/>

<path fill="#5C493A" stroke="none" d="
M 284.35 237.65
L 284.25 237.55
Q 280.860546875 234.639453125 275.9 232.2 274.853125 231.66171875 273.7 231.15 273.1369140625 230.8970703125 272.55 230.65 262.25 226.35 248.6 224.3 247.591796875 224.1501953125 246.5 224 238.196484375 222.9078125 225.5 222.2 224.6 222.15 223.7 222.1
L 223.75 221.8
Q 223.2 221.75 222.55 221.95 222.35 222 220.5 222.65
L 221.6 222.3
Q 220.2265625 222.9681640625 219.7 223.15 219.564453125 223.237109375 219.5 223.25 218.85 223.45 217.7 223.55
L 217.65 223.55
Q 216.25 223.65 215.75 223.75 213.8484375 224.21484375 212.65 225.8 212.4435546875 226.1169921875 212.25 226.45 210.95 228.65 211.6 230.85 212 232.2 213.3 233.85 213.9376953125 234.694921875 214.35 235.25 215.3318359375 236.5478515625 215.4 236.65 215.75 237.15 217.95 242.65 219.45 246.3 221.7 247.45 223 248.15 224.95 248.25 225.7 248.25 228.35 248.15 229.9 248.1 231.65 248.15 232.813671875 248.21640625 236.05 248.65 237.721875 248.881640625 239.9 249.2 241.2 249.4 242.75 249.65
L 241.4 249.4
Q 241.55 249.4 241.75 249.45 243.7 249.75 246.35 250.25 246.45 250.25 246.55 250.25 248.4 250.55 250.6 250.95 254.75 251.6 263.1 252.75 270.2 254.05 274.7 256.9 276.7 258.2 280.7 261.1 283.46171875 262.844140625 285.85 263.1 285.9240234375 263.1421875 286 263.15
L 287.55 264.95
Q 288.5 266.1 290 266.5 290.121875 266.5244140625 290.2 266.55 290.3474609375 266.598828125 290.45 266.65 290.4841796875 266.7267578125 290.5 266.8 290.7095703125 267.1767578125 291 267.55
L 291.35 268 291.9 268.35
Q 292.2142578125 268.480859375 292.5 268.55 292.787890625 268.65234375 293.05 268.7
L 293.15 268.95 293.35 269.3 293.4 269.45 293.45 269.55 293.7 269.9 293.75 270.1 293.9 270.25 293.95 270.35 294.05 270.4 294.45 270.55 294.65 270.6
Q 294.85 270.5 294.95 270.55
L 295 270.5
Q 295.1 270.5 295.3 270.3 295.3400390625 270.2599609375 295.45 270.1 295.4703125 270.0494140625 295.5 270
L 295.6 269.75 295.65 269.5 295.6 269.4 295.6 269.1 295.5 269 295.45 268.75 295.05 268.25
Q 295.2 268.15 295.35 268 295.8234375 267.6212890625 296.2 266.85 296.2287109375 266.7951171875 296.25 266.75
L 296.45 265.85
Q 296.45 265.7173828125 296.4 265.55 296.3705078125 265.111328125 296.15 264.45
L 295.95 263.85
Q 296.35 263.05 296.4 262.15 296.35 260.95 296.35 260.35 296.35 259.25 296.35 258.75 296.3 257.8 296.15 257.15 295.8 255.75 294.85 254.8 294.85 254.3 294.8 253.85 294.5 250.65 291.4 245.95 287.95 240.85 284.75 238 284.5685546875 237.836328125 284.35 237.65
M 150.45 222.3
L 150.45 222.4
Q 149.125390625 222.056640625 147.7 222.8
L 147.65 222.85
Q 147.2 223.1 146.85 223.4 145.638671875 222.9744140625 144.15 222.75 143.3630859375 222.6845703125 142.5 222.65 141.7 222.65 138.9 222.75 136.6 222.85 135.25 222.7
L 135.25 222.9
Q 128.95 222.9 124.8 223.2 122.05 223.4 120.75 223.9 120.0142578125 224.1802734375 119.35 224.6 119.0693359375 224.790625 118.8 225
L 118.75 225 118.75 225.05
Q 118.7 225.05 118.7 225.1 117.2640625 225.0853515625 115.85 225.25 113.4736328125 225.5314453125 111.15 226.3 110.207421875 226.66875 109.25 227.1 106.65 228.4 105.3 228.95 103.25 229.75 102.25 230.15 100.45 230.85 99.4 231.6 98.8 232.05 98.3 232.6 98.1 232.55 97.9 232.55 97.7 232.55 97.5 232.55
L 97.45 232.4
Q 94.65 232.95 91.25 235.2 89.787890625 236.1591796875 88.45 237.15 82.58984375 241.63515625 79.05 247.25 77.25 250.2 76.75 252.6 76.7078125 252.811328125 76.65 253.1 76.5865234375 253.5224609375 76.5 254.1 76.35 255 76.15 255.55 76.0201171875 255.9720703125 75.7 256.55 75.568359375 256.8173828125 75.4 257.1 75.348828125 257.17109375 75.3 257.25 74.6 258.5 74.4 258.95 73.75 260.55 74 262.25 74.11171875 263.0314453125 74.4 263.7 74.70625 264.473046875 75.2 265.1 75.2876953125 265.179296875 75.35 265.25 76.4 266.55 78.05 267.1 79.0013671875 267.4458984375 79.9 267.45 80.62265625 267.4693359375 81.3 267.3 82.8 266.95 84.9 265.45 86.2 264.55 87.75 263.4 88.55 262.75 89.4 262.1 89.5 262.05 89.6 262 90.4 261.6 92.05 260.75 93.7 259.95 96.1 259.05 97.5 258.55 100.25 257.55 101.9 256.95 105.9 255.4 109.5 254 111.6 253.3 112.6220703125 252.9552734375 113.85 252.55 117.896484375 251.3390625 124.3 249.7 128.95 248.55 131.3 248.15 135.25 247.55 138.35 247.95 139.4 248.1 141.9 248.6 143.3900390625 248.9310546875 144.45 249.05 145.0109375 249.1662109375 145.45 249.2 146.7341796875 249.3009765625 147.8 249.15 150.5494140625 248.886328125 152.15 247.25 153.3 246.1 153.9 244.1 154.2 243.2 154.7 240.45 155.4 236.75 156.75 232.9 157.5 230.85 157.65 230.2 158.05 228.65 157.9 227.45 157.55 225.1 155.25 223.6 154.76328125 223.290234375 154.25 223.05 152.4748046875 222.2220703125 150.45 222.3 Z"/>

<path fill="#5C4A39" stroke="none" d="
M 352.35 122.45
Q 350.45 119.85 348.75 116.75 335.6 94.15 300.5 84.25 306.8 60.4 281.4 37.05 275.95 32 269 27 271.5 41.85 262.15 47.5 253.55 52.6 244 48.8 235.25 45.3 228.6 44.45 221.05 43.5 216.25 46 223.35 33.95 219.35 18.75 219.05 17.7 218.75 16.65 217.9 14 216.75 11.25 197.8 28.7 161.75 24.25 131.05 22.45 124.75 37.5 117.4 29.75 107.5 26.25 89.55 18.8 92.5 0 90.05 3.25 87.6 6 87.55 6.05 87.5 6.15 87.4 6.25 87.3 6.35 82.65 11.55 78 15 70.2 22.55 66.25 49 52.4 63.45 44 81.5 31.5 106.8 36.15 124.1 32 119.2 18 145 35.05 178.65 0.25 210.75 6.3 232.65 6.5 253.25 9.65 282.95 0 281.25 3.7 303.55 17.5 309.25 30.4 284.5 44.2 311.2
L 48.75 320
Q 50.9 308.6 49.8 276.7 48.85 249.1 56.1 219.75 62.3 191.3 81.75 169 92.1 159 101.35 153.5 102 153.1 102.65 152.75 110.9 148.05 118.3 147 127.45 145.7 135.25 150 168.1 171.25 199.5 167.55 230.9 163.8 254.2 156.3 277.5 148.75 286.5 164 303.15 184.7 315.75 230.5 319.7 245.65 318 272.5 316.45 289.4 317.75 306.25 330.3 276.9 341 286.5 344.85 288.9 348.75 298.25 375.5 270.25 362.95 239.25 360.35 234.4 359.25 229.45 356.3 216.25 364.2 202.25 372.85 187.4 372.2 177
L 375.7 169.5 363.95 176.5
Q 366.65 168.9 364.25 165.95 351.05 151.1 355.25 151.25 378.05 147.3 383.2 136.25 364.55 139.65 352.35 122.45 Z"/>
</g>

<g id="Symbol_29_0_Layer0_1_FILL">
<path fill="#E6B899" stroke="none" d="
M 102.65 152.75
Q 102 153.1 101.35 153.5 92.1 159 81.75 169 62.3 191.3 56.1 219.75 48.85 249.1 49.8 276.7 50.9 308.6 48.75 320
L 44.2 311.2
Q 30.4 284.5 17.5 309.25 4.5 343.3 47.7 376.05 60 421.55 82.6 451.8 94.2 467.3 108.6 478.8 141.1 506.7 181.7 506.95 136.35 491.6 116.7 466.45 87.25 427.3 78.2 379.5 60.3 305.9 85.05 211.5 97 157.55 118.3 147 110.9 148.05 102.65 152.75 Z"/>

<path fill="#382C22" stroke="none" d="
M 78 15
Q 70.2 22.55 66.25 49 52.4 63.45 44 81.5 31.5 106.8 36.15 124.1 32 119.2 18 145 35.05 178.65 0.25 210.75 6.3 232.65 6.5 253.25 9.65 282.95 0 281.25 3.7 303.55 17.5 309.25 30.4 284.5 44.2 311.2
L 48.75 320
Q 50.9 308.6 49.8 276.7 48.85 249.1 56.1 219.75 62.3 191.3 81.75 169 92.1 159 101.35 153.5 97.4 144.95 83.05 142.4 73.55 140.75 68.5 130.75 56.65 88 80.2 48 90.6 29 87.3 6.35 82.65 11.55 78 15 Z"/>

<path fill="#372D22" stroke="none" d="
M 218.75 16.65
Q 217.9 14 216.75 11.25 197.8 28.7 161.75 24.25 131.05 22.45 124.75 37.5 113.6 78.3 129.7 84.5 134.9 67.25 148.65 50 157.1 40.2 165.75 40 197.05 38.9 218.75 16.65
M 281.4 37.05
Q 275.95 32 269 27 271.5 41.85 262.15 47.5 253.55 52.6 244 48.8 235.25 45.3 228.6 44.45 269.1 72.2 281.4 37.05 Z"/>

<path fill="#FBCBAA" stroke="none" d="
M 324.5 360.85
Q 361 330.7 348.75 298.25 344.85 288.9 341 286.5 330.3 276.9 317.75 306.25 316.45 289.4 318 272.5 319.7 245.65 315.75 230.5 303.15 184.7 286.5 164 277.5 148.75 254.2 156.3 230.9 163.8 199.5 167.55 168.1 171.25 135.25 150 127.45 145.7 118.3 147 97 157.55 85.05 211.5 60.3 305.9 78.2 379.5 87.25 427.3 116.7 466.45 136.35 491.6 181.7 506.95 184.7 506.95 187.7 506.85 230.05 505.25 256.35 481.15 276.45 462.8 290.85 442.25 316.85 405.15 324.5 360.85 Z"/>

<path fill="#5C4A39" stroke="none" d="
M 352.35 122.45
Q 350.45 119.85 348.75 116.75 335.6 94.15 300.5 84.25 306.8 60.4 281.4 37.05 269.1 72.2 228.6 44.45 221.05 43.5 216.25 46 223.35 33.95 219.35 18.75 219.05 17.7 218.75 16.65 197.05 38.9 165.75 40 157.1 40.2 148.65 50 134.9 67.25 129.7 84.5 113.6 78.3 124.75 37.5 117.4 29.75 107.5 26.25 89.55 18.8 92.5 0 90.05 3.25 87.6 6 87.55 6.05 87.5 6.15 87.4 6.25 87.3 6.35 90.6 29 80.2 48 56.65 88 68.5 130.75 73.55 140.75 83.05 142.4 97.4 144.95 101.35 153.5 102 153.1 102.65 152.75 110.9 148.05 118.3 147 127.45 145.7 135.25 150 168.1 171.25 199.5 167.55 230.9 163.8 254.2 156.3 277.5 148.75 286.5 164 303.15 184.7 315.75 230.5 319.7 245.65 318 272.5 316.45 289.4 317.75 306.25 330.3 276.9 341 286.5 344.85 288.9 348.75 298.25 375.5 270.25 362.95 239.25 360.35 234.4 359.25 229.45 356.3 216.25 364.2 202.25 372.85 187.4 372.2 177
L 375.7 169.5 363.95 176.5
Q 366.65 168.9 364.25 165.95 351.05 151.1 355.25 151.25 378.05 147.3 383.2 136.25 364.55 139.65 352.35 122.45 Z"/>
</g>

<g id="Symbol_29_0_Layer0_1_MEMBER_0_STROKES_1_FILL">
<path fill="#000000" stroke="none" d="
M 239.2 336.65
L 238.65 336.4 238.5 336.3
Q 237.4 335.9 237.05 335.85
L 236.75 335.8 236.5 335.8
Q 236.3 335.8 236.2 335.9 235.95 336.05 236.3 336.45
L 237.55 337.7 246 348.15 250.45 355.5 250.65 355.95 250.85 356
Q 251.9 356.15 252.6 355.65 253.15 355.25 253.3 354.65 253.35 354.55 253.3 354.5
L 250.4 349.4 244.9 341.55 243 339.4 242.3 338.85 242 338.55 241.6 338.3 240.8 337.65 239.2 336.65 Z"/>
</g>

<g id="Symbol_29_0_Layer0_1_MEMBER_1_STROKES_1_FILL">
<path fill="#000000" stroke="none" d="
M 401.8 455
L 401.55 455 400.15 455.25 399.95 455.25 396.45 455.55
Q 394.45 455.55 393.4 455.45 392 455.4 390.45 455.05 389.55 454.9 387.95 454.45
L 387.4 454.3 385.75 453.65 383.2 452.85
Q 380.95 451.95 381 452
L 379.65 451.6
Q 378.95 451.5 378.75 451.6 378.45 451.8 378.65 452.3
L 378.8 452.6 378.9 452.75 379 452.95 380.95 455.1 382.25 456.15 382.4 456.3 383.8 457.2 383.85 457.2
Q 383.85 457.25 384 457.25
L 386.55 458.2
Q 387.7 458.6 389.5 458.95 390.95 459.3 393 459.45 394.95 459.6 396.45 459.55 397.7 459.55 399.5 459.35
L 402.3 458.95 402.5 458.95 402.65 458.75
Q 403.45 456.45 401.9 455.05 401.8 454.85 401.8 455 Z"/>
</g>

<g id="Symbol_29_0_Layer0_1_MEMBER_2_STROKES_1_FILL">
<path fill="#000000" stroke="none" d="
M 463.6 424.05
L 455.2 432.1 454.9 432.3 452.5 434.25
Q 448.1 437.75 444.25 440.2
L 440.35 442.6 440.05 442.85 434.1 446.7
Q 432.8 447.5 433.1 447.35 431.25 448.7 431.15 448.8 430.3 449.45 430.25 449.8 430.2 450.15 431 450.1 431.55 450.1 432.2 449.9 433.1 449.7 434 449.4
L 435.3 449 441.8 446.4 442 446.3 453.1 438.9 461.7 431.65 466.5 426.8 466.6 426.5
Q 466.55 424.9 465.5 424.3 464.75 423.85 463.8 423.95
L 463.6 424.05 Z"/>
</g>

<g id="Symbol_29_0_Layer0_1_MEMBER_3_STROKES_1_FILL">
<path fill="#000000" stroke="none" d="
M 442.15 441.6
L 436.35 445.15
Q 433.7 446.6 430.3 448.1 427 449.55 423.05 450.8 419.4 452 415.65 452.85
L 414.3 453.15 402.55 454.9 402.4 454.95 392.05 456.05
Q 391.5 456.05 391.25 456.1
L 386.95 456.55
Q 385.45 456.8 385.15 457.05 384.85 457.35 385.9 457.7
L 388.7 458.25 402.45 458.95 416.15 456.85
Q 420.7 455.75 424 454.7
L 425 454.4 431.7 451.85
Q 434.75 450.5 438.2 448.7
L 439.7 447.85 439.85 447.75 440.15 447.6 442.65 446.05 442.85 445.95 443.05 445.8 444.45 444.9 444.65 444.55
Q 445.3 442.7 444.35 441.95 443.7 441.4 442.45 441.5 442.35 441.5 442.15 441.6 Z"/>
</g>

<g id="Symbol_29_0_Layer0_1_MEMBER_4_FILL">
<path fill="#382C22" stroke="none" d="
M 97.9 232.55
Q 97.7 232.55 97.5 232.55
L 97.45 232.4
Q 94.65 232.95 91.25 235.2 83.4 240.35 79.05 247.25 77.25 250.2 76.75 252.6 76.65 253.1 76.5 254.1 76.35 255 76.15 255.55 75.95 256.2 75.3 257.25 74.6 258.5 74.4 258.95 73.75 260.55 74 262.25 74.25 264 75.35 265.25 76.4 266.55 78.05 267.1 79.7 267.7 81.3 267.3 82.8 266.95 84.9 265.45 86.2 264.55 87.75 263.4 88.55 245.15 97.9 232.55 Z"/>

<path fill="#5C493A" stroke="none" d="
M 150.45 222.3
L 150.45 222.4
Q 149.1 222.05 147.65 222.85 147.2 223.1 146.85 223.4 145 222.75 142.5 222.65 141.7 222.65 138.9 222.75 136.6 222.85 135.25 222.7
L 135.25 222.9
Q 128.95 222.9 124.8 223.2 122.05 223.4 120.75 223.9 119.7 224.3 118.8 225
L 118.75 225 118.75 225.05
Q 118.7 225.05 118.7 225.1 113.8 225.05 109.25 227.1 106.65 228.4 105.3 228.95 103.25 229.75 102.25 230.15 100.45 230.85 99.4 231.6 98.8 232.05 98.3 232.6 98.1 232.55 97.9 232.55 88.55 245.15 87.75 263.4 88.55 262.75 89.4 262.1 89.5 262.05 89.6 262 90.4 261.6 92.05 260.75 93.7 259.95 96.1 259.05 97.5 258.55 100.25 257.55 101.9 256.95 105.9 255.4 109.5 254 111.6 253.3 115.9 251.85 124.3 249.7 128.95 248.55 131.3 248.15 135.25 247.55 138.35 247.95 139.4 248.1 141.9 248.6 144.15 249.1 145.45 249.2 149.9 249.55 152.15 247.25 153.3 246.1 153.9 244.1 154.2 243.2 154.7 240.45 155.4 236.75 156.75 232.9 157.5 230.85 157.65 230.2 158.05 228.65 157.9 227.45 157.55 225.1 155.25 223.6 153.05 222.2 150.45 222.3 Z"/>
</g>

<g id="Symbol_29_0_Layer0_1_MEMBER_4_MEMBER_0_MEMBER_0_STROKES_1_FILL">
<path fill="#000000" stroke="none" d="
M 363.7 269.45
L 363.5 269.9 363.45 270.15 362.5 272.65
Q 361.95 274 361.4 275.25 361 276.15 360.85 276.8 360.65 277.35 360.75 277.75 360.9 278.05 361.5 277.85
L 361.8 277.65 362 277.55 363.9 275.85 365.85 273.6 365.95 273.4 366.1 273.25 367 271.85 367.05 271.8 367.15 271.6 368.35 268.7
Q 369 266.9 369.35 265.35 369.9 263.35 370.2 261.4
L 370.65 257.4
Q 370.75 254.95 370.7 253.9
L 370.65 251.65 370.6 251.4 370.55 250.35 370.35 250.2
Q 369.15 249.55 368 249.8 367.15 250 366.65 250.55
L 366.55 250.7 366.6 251.65 366.65 251.85 366.65 257.1
Q 366.45 259.5 366.25 260.65
L 364.65 267.1 363.8 269.3 363.7 269.45 Z"/>
</g>

<g id="Symbol_29_0_Layer0_1_MEMBER_5_FILL">
<path fill="#382C22" stroke="none" d="
M 217.7 223.55
L 217.65 223.55
Q 216.25 223.65 215.75 223.75 213.5 224.3 212.25 226.45 210.95 228.65 211.6 230.85 212 232.2 213.3 233.85 215.3 236.5 215.4 236.65 215.75 237.15 217.95 242.65 219.45 246.3 221.7 247.45 223 248.15 224.95 248.25 225.7 248.25 228.35 248.15 229.9 248.1 231.65 248.15 233.4 248.25 239.9 249.2 223.85 244.9 217.7 223.55 Z"/>

<path fill="#5C493A" stroke="none" d="
M 291.4 245.95
Q 287.95 240.85 284.75 238 280.15 233.85 272.55 230.65 262.25 226.35 248.6 224.3 239.85 223 225.5 222.2 224.6 222.15 223.7 222.1
L 223.75 221.8
Q 223.2 221.75 222.55 221.95 222.35 222 220.5 222.65
L 221.6 222.3
Q 219.75 223.2 219.5 223.25 218.85 223.45 217.7 223.55 223.85 244.9 239.9 249.2 241.2 249.4 242.75 249.65
L 241.4 249.4
Q 241.55 249.4 241.75 249.45 243.7 249.75 246.35 250.25 246.45 250.25 246.55 250.25 248.4 250.55 250.6 250.95 254.75 251.6 263.1 252.75 270.2 254.05 274.7 256.9 276.7 258.2 280.7 261.1 283.55 262.9 286 263.15
L 287.55 264.95
Q 288.5 266.1 290 266.5 290.25 266.55 290.45 266.65 290.65 267.1 291 267.55
L 291.35 268 291.9 268.35
Q 292.5 268.6 293.05 268.7
L 293.15 268.95 293.35 269.3 293.4 269.45 293.45 269.55 293.7 269.9 293.75 270.1 293.9 270.25 293.95 270.35 294.05 270.4 294.45 270.55 294.65 270.6
Q 294.85 270.5 294.95 270.55
L 295 270.5
Q 295.1 270.5 295.3 270.3 295.35 270.25 295.5 270
L 295.6 269.75 295.65 269.5 295.6 269.1 295.5 269 295.45 268.75 295.05 268.25
Q 295.2 268.15 295.35 268 295.85 267.6 296.25 266.75
L 296.45 265.85
Q 296.45 265.35 296.15 264.45
L 295.95 263.85
Q 296.35 263.05 296.4 262.15 296.35 260.95 296.35 260.35 296.35 259.25 296.35 258.75 296.3 257.8 296.15 257.15 295.8 255.75 294.85 254.8 294.85 254.3 294.8 253.85 294.5 250.65 291.4 245.95 Z"/>
</g>

<g id="Symbol_29_0_Layer0_1_MEMBER_5_MEMBER_0_MEMBER_0_STROKES_1_FILL">
<path fill="#000000" stroke="none" d="
M 427.45 262.5
L 425.9 256.4 425.8 256.15 424.55 250.65
Q 424.4 249.85 424.15 249.05 423.85 248.3 423.6 248.15 423.3 248 423 248.55
L 422.8 248.9 422.75 249.1 422.65 249.35 422.4 250.25 421.85 255.5 421.9 256.85 421.95 257.05 422.05 257.75 422.45 259.45 422.5 259.85 423.6 263.65
Q 424.5 266 425.15 267.45 425.9 269.15 427 271.1
L 430.8 276.9 431 277.1 431.2 277.15
Q 432.6 277.05 433.4 276.2 434 275.6 434.15 274.8 434.2 274.7 434.15 274.65
L 434.1 274.55
Q 434 274.55 434 274.4
L 433.55 273.9 433.45 273.7 432.95 273.05 432.8 272.8 432.6 272.55 430.5 269.2
Q 429.25 266.8 428.85 265.9 428.25 264.7 427.45 262.5 Z"/>
</g>

<g id="Symbol_29_0_Layer0_1_MEMBER_5_MEMBER_0_MEMBER_1_STROKES_1_FILL">
<path fill="#000000" stroke="none" d="
M 440.15 277.4
Q 441.25 277.3 442 277.3 446.2 277.05 450.85 277.2 456.05 277.35 460.85 278 465.8 278.6 470.6 279.85
L 475 281.1 475.25 281.15 478.9 282.4 479.3 282.6 479.55 282.65 482.05 283.7
Q 483.9 284.5 484.5 284.8
L 485.35 285.25 485.75 285.4 485.9 285.5 495.6 290.85 500 293.9 500.05 293.9 503.6 296.5
Q 505.15 297.65 505.6 297.7 506.1 297.8 505.3 296.55
L 504.6 295.6 504.5 295.5 504.4 295.35 504 294.85 499.35 290.15 494.2 286 494 285.8 489.65 282.95 484.3 280.35
Q 483.6 280 480.9 278.9 476.6 277.25 472.15 276.1 467.15 274.8 461.75 274.05 456.9 273.35 451.2 273.2 446.8 273.05 441.95 273.25
L 432.6 274 432.15 274.25
Q 430.25 275.65 430.8 276.75 431.25 277.55 432.7 277.95 432.9 278.05 433.1 278
L 436.6 277.65 436.75 277.65 436.95 277.6 439.7 277.4 440.15 277.4 Z"/>
</g>

<g id="Symbol_29_0_Layer0_1_MEMBER_5_MEMBER_0_MEMBER_2_STROKES_1_FILL">
<path fill="#000000" stroke="none" d="
M 484.35 255.45
Q 482.65 255.9 482.45 257.05 482.25 257.9 482.8 258.85 482.85 258.95 482.95 259.05
L 488 261.75 492.65 264.8
Q 495.2 266.65 497.45 268.9 499.8 271.25 501.4 273.65 502.4 275.25 502.8 276.05
L 503.85 278.35
Q 504 278.7 504.55 280.35
L 505.5 284.85
Q 505.8 286.55 505.85 288.25 505.9 289.75 505.8 291.7 505.65 293.25 505.7 293.1
L 505.5 295.85
Q 505.45 297 505.6 297.45 505.85 297.75 506.4 297
L 506.9 296.1 507.85 293.65
Q 508.5 291.65 508.75 290.3 509.1 288.6 509.2 286.9 509.3 285.85 509.3 284.25
L 509.25 283.5 508.5 279.65 506.55 274.6
Q 505.9 273.2 504.9 271.75 504.1 270.5 502.85 268.9
L 500.5 266.25
Q 498.25 264 495.2 261.65
L 486.3 256.2 484.7 255.45
Q 484.65 255.4 484.55 255.4 484.4 255.4 484.35 255.45 Z"/>
</g>

<g id="Symbol_29_0_Layer0_1_MEMBER_6_STROKES_1_FILL">
<path fill="#000000" stroke="none" d="
M 263.45 170.15
L 263.3 170.05 262.6 169.7 262.45 169.6 261.75 169.3 261.55 169.25 259.35 167.95
Q 258 167.05 256.55 165.6 255.25 164.3 253.85 162.25 252.85 160.75 251.75 158.45
L 250.55 155.65 250.5 155.45 250.4 155.25 249.05 151 248.85 150.85
Q 247.5 150.25 246.45 150.75 245.7 151.1 245.25 151.85 245.15 152 245.2 152.05
L 245.3 152.4 245.3 152.55 245.4 152.75 248.05 160.05
Q 249.1 162.3 250.45 164.3 251.85 166.45 253.5 168.2
L 253.7 168.4 253.8 168.55 254.75 169.45 255.4 169.95 255.6 170.15 257.2 171.35 257.4 171.45 258.95 172.4 260.9 173.3 262.1 173.65 262.25 173.65 264.55 174.1
Q 266.55 174.3 267.25 174.25
L 268.1 174.25 268.35 174.2 270.4 173.85
Q 271.25 173.55 271.45 173.25 271.6 172.9 270.95 172.65
L 270.55 172.5 270.3 172.45 270.05 172.35 268.55 172 268.3 171.9 268.15 171.9 268.05 171.85 267.5 171.7 267.25 171.6 267.15 171.6 267.1 171.55 265.25 170.95 264.45 170.6 264.3 170.55 263.6 170.25 263.55 170.2 263.45 170.15 Z"/>
</g>

<g id="Symbol_29_0_Layer0_1_MEMBER_7_STROKES_1_FILL">
<path fill="#E6B899" stroke="none" d="
M 415 465.95
L 414.45 465.85 414.15 465.85 413.4 465.75 412.95 465.75
Q 411.05 465.6 408.6 465.75 406.7 465.95 404.3 466.45
L 402.25 467.05 400.9 467.85 400.75 467.9 399.9 468.45 399.3 468.95
Q 398.85 469.3 398.6 469.75 398.35 470.05 398.35 470.45 398.45 470.75 398.85 470.9
L 399.35 471 402.35 470.95 403.1 470.85 403.45 470.85 405.1 470.4
Q 406.85 469.95 408.85 469.75
L 411.85 469.7
Q 412.45 469.7 412.7 469.75
L 413.05 469.75 413.4 469.8 413.7 469.8 413.85 469.85 413.95 469.85 414.5 469.9 414.65 469.75
Q 415.7 467.8 415.1 466.05
L 415 465.95 Z"/>
</g>

<g id="Symbol_29_0_Layer0_1_MEMBER_8_FILL">
<path fill="#E6B899" stroke="none" d="
M 147.2 355.35
Q 143.8 374.85 150.65 390.6 160.75 410.8 179.35 406.1 202.2 401 204.65 396.25 197.7 397.25 191.4 397.55 182.8 398.05 176.55 397.1 168.55 395.9 162.9 392.2 159.1 389.75 157.5 386.8 156 384.05 155.7 379.05 155.5 375.25 155.85 370.45 156.05 367.85 156.75 361.85
L 164.95 290.65
Q 165.05 289.5 165.35 288.8
L 164.8 287.35 147.2 355.35 Z"/>
</g>

<g id="Symbol_29_0_Layer0_1_MEMBER_8_MEMBER_0_STROKES_1_FILL">
<path fill="#000000" stroke="none" d="
M 374.6 337.4
L 375.95 320.55
Q 376.3 314.35 375.85 313.4 375.3 312.3 373.75 320.05 372.3 326.65 370.75 336.1
L 363.35 395.3 363.45 395.8
Q 364.3 398.1 365.55 397.8 366.4 397.6 367.2 396.2 367.35 395.9 367.35 395.8
L 374.6 337.4 Z"/>
</g>

<g id="Symbol_29_0_Layer0_1_MEMBER_8_MEMBER_1_STROKES_1_FILL">
<path fill="#000000" stroke="none" d="
M 364.2 394.05
L 363.8 394.45 363.5 394.85
Q 363.35 395 363.35 395.2
L 363.05 397.35 363.05 397.6
Q 362.7 401 362.7 403.55 362.7 405.65 362.9 407.5 363.05 409.5 363.6 411.95
L 364.25 414.25 364.3 414.5 366.55 419.35 367.3 420.4 367.45 420.65 369.8 423.3 370 423.55 371.45 424.8 371.7 424.95 372.7 425.7 373.75 426.35 375.3 427.2
Q 377.5 428.25 379.5 428.85 381.35 429.45 383.35 429.8
L 383.75 429.9 387.95 430.45 389.1 430.5
Q 389.8 430.55 390.75 430.6
L 393.7 430.5 405.4 428.85
Q 405.95 428.7 405.8 428.7
L 410.9 427.1
Q 411.45 426.85 411.55 426.65 411.9 426.35 410.55 426.25
L 407.3 426.35
Q 407.05 426.4 406.5 426.4
L 394.85 426.75
Q 394.55 426.7 394.05 426.7
L 393.7 426.7 393.4 426.65 392.4 426.65 384.6 426
Q 382.55 425.6 381.15 425.2 379.1 424.6 377.5 423.8
L 375.25 422.6 375.15 422.5 375.05 422.45 374.65 422.15 374.55 422.1 374 421.7 373.9 421.6 373.8 421.55 373.6 421.35 373.4 421.2 373.3 421.1 373.2 421.05 372.7 420.6 372.65 420.5 372.45 420.3 372.25 420.15 371.7 419.55 371.65 419.45 371.55 419.35 370.75 418.35 370.6 418.1 370.3 417.7 370.2 417.6 370.15 417.45 369.85 417
Q 369.15 415.8 368.9 415.15
L 368.45 414.2 368.4 414.05 368.35 413.95 368.3 413.7 368.1 413.2 367.55 411.2
Q 367.05 409.4 366.9 407.3 366.7 405.55 366.7 403.65 366.7 400.85 367 398.05
L 367.3 395.8 367.2 395.35 366.7 394.45 366.2 393.85
Q 365.7 393.5 365.15 393.55 364.75 393.6 364.2 394.05 Z"/>
</g>

<g id="Symbol_29_0_Layer0_1_MEMBER_9_MEMBER_0_STROKES_1_FILL">
<path fill="#000000" stroke="none" d="
M 263.65 393.3
L 262.3 391.05
Q 261.7 390.25 261.1 390.25 260.45 390.3 260.15 391.55 259.8 392.65 259.75 394.15
L 261.85 402.75 262 402.75
Q 264.3 402.8 265.65 401.85
L 265.75 401.75 263.65 393.3 Z"/>
</g>

<g id="Symbol_29_0_Layer0_1_MEMBER_10_MEMBER_0_STROKES_1_FILL">
<path fill="#000000" stroke="none" d="
M 538.05 379.55
L 537.2 378.15
Q 536.95 377.8 536.95 377.9
L 536.35 377.45
Q 535.95 377.35 535.75 377.4 535.5 377.4 535.2 377.7
L 535 378.05 534.9 378.3 534.85 378.55 534.65 378.95 534.65 379.05 534.2 380.4 534.25 380.45 534.25 380.65 534.3 380.9 534.3 382.75 534.25 383 534.25 383.15 534.2 383.3
Q 534 384.55 533.75 385.3
L 533.45 386.3 533.55 386.4
Q 535.4 387.55 537.1 387.7
L 537.2 387.65 538.2 383.9 538.25 380.25 538.2 380.1 538.2 379.9
Q 538.1 379.8 538.05 379.55 Z"/>
</g>

<g id="Symbol_29_0_Layer0_1_MEMBER_11_FILL">
<path fill="#E6B899" stroke="none" d="
M 326.75 323.75
Q 338.15 313 338 302 328.8 310.65 326.75 323.75 Z"/>
</g>

<g id="Symbol_29_0_Layer0_1_MEMBER_11_MEMBER_0_STROKES_1_FILL">
<path fill="#000000" stroke="none" d="
M 542.7 342.15
L 541 346.15 540.7 347.05 540.6 347.25 540.55 347.4 540.5 347.65 540.4 347.85 540.4 347.9 540.35 348.1 540 350.2 540 350.5 539.95 350.75 539.8 352.7
Q 539.7 353.6 539.8 353.5
L 539.85 354.35 540 355.05
Q 540.15 355.75 540.45 355.9 540.7 356.1 541.1 355.65
L 541.5 355 544.15 349.35 544.2 349.15 546.25 344.05
Q 547.1 342.3 547.8 341.1 548.9 339.1 549.5 338.2 550.1 337.2 551.15 335.7
L 551.8 334.7
Q 552 334.55 552.1 334.3
L 552.9 333.25 552.85 333.05
Q 551.95 330.8 549.85 330.8 549.7 330.8 549.7 330.85
L 548.55 332.35 542.7 342.15 Z"/>
</g>

<path id="Symbol_29_0_Layer0_1_1_STROKES" stroke="#000000" stroke-width="4" stroke-linejoin="round" stroke-linecap="round" fill="none" d="
M 281.4 37.05
Q 306.8 60.4 300.5 84.25 335.6 94.15 348.75 116.75 350.45 119.85 352.35 122.45 364.55 139.65 383.2 136.25 378.05 147.3 355.25 151.25 351.05 151.1 364.25 165.95 366.65 168.9 363.95 176.5
L 375.7 169.5 372.2 177
Q 372.85 187.4 364.2 202.25 356.3 216.25 359.25 229.45 360.35 234.4 362.95 239.25 375.5 270.25 348.75 298.25 361 330.7 324.5 360.85 316.85 405.15 290.85 442.25 276.45 462.8 256.35 481.15 230.05 505.25 187.7 506.85 184.7 506.95 181.7 506.95 141.1 506.7 108.6 478.8 94.2 467.3 82.6 451.8 60 421.55 47.7 376.05 4.5 343.3 17.5 309.25 3.7 303.55 0 281.25 9.65 282.95 6.5 253.25 6.3 232.65 0.25 210.75 35.05 178.65 18 145 32 119.2 36.15 124.1 31.5 106.8 44 81.5 52.4 63.45 66.25 49 70.2 22.55 78 15 82.65 11.55 87.3 6.35 87.4 6.25 87.5 6.15 87.55 6.05 87.6 6 90.05 3.25 92.5 0 89.55 18.8 107.5 26.25 117.4 29.75 124.75 37.5 131.05 22.45 161.75 24.25 197.8 28.7 216.75 11.25 217.9 14 218.75 16.65 219.05 17.7 219.35 18.75 223.35 33.95 216.25 46 221.05 43.5 228.6 44.45 235.25 45.3 244 48.8 253.55 52.6 262.15 47.5 271.5 41.85 269 27 275.95 32 281.4 37.05 Z
M 118.3 147
Q 127.45 145.7 135.25 150 168.1 171.25 199.5 167.55 230.9 163.8 254.2 156.3 277.5 148.75 286.5 164 303.15 184.7 315.75 230.5 319.7 245.65 318 272.5 316.45 289.4 317.75 306.25 330.3 276.9 341 286.5 344.85 288.9 348.75 298.25
M 101.35 153.5
Q 102 153.1 102.65 152.75 110.9 148.05 118.3 147
M 17.5 309.25
Q 30.4 284.5 44.2 311.2
L 48.75 320
Q 50.9 308.6 49.8 276.7 48.85 249.1 56.1 219.75 62.3 191.3 81.75 169 92.1 159 101.35 153.5"/>

<path id="Symbol_29_0_Layer0_1_MEMBER_4_MEMBER_0_1_STROKES" stroke="#000000" stroke-width="4" stroke-linejoin="round" stroke-linecap="round" fill="none" d="
M 157.75 223.25
Q 90.25 219 76.5 253.5 73.6 263.05 76.5 269.75 109.6 246.9 150.15 249.3"/>

<path id="Symbol_29_0_Layer0_1_MEMBER_5_MEMBER_0_1_STROKES" stroke="#000000" stroke-width="4" stroke-linejoin="round" stroke-linecap="round" fill="none" d="
M 214.25 223.4
Q 246.9 221.7 266.25 228.05 270.3 229.35 273.75 231.05"/>
</defs>

<g id="dan_mc" transform="matrix( 0.5336761474609375, 0, 0, 0.5336761474609375, -80.55,1.25) ">
<g id="head_mc" transform="matrix( 1, 0, 0, 1, 153.75,0) ">
<g transform="matrix( 1, 0, 0, 1, 0,0) ">
<use xlink:href="#Symbol_29_0_Layer0_0_FILL"/>
</g>

<g transform="matrix( 1, 0, 0, 1, 0,0) ">
<use xlink:href="#Symbol_29_0_Layer0_1_FILL"/>

<use xlink:href="#Symbol_29_0_Layer0_1_1_STROKES"/>
</g>

<g transform="matrix( 1, 0, 0, 1, -210.75,-26.5) ">
<use xlink:href="#Symbol_29_0_Layer0_1_MEMBER_0_STROKES_1_FILL"/>
</g>

<g transform="matrix( 1, 0, 0, 1, -210.75,-26.5) ">
<use xlink:href="#Symbol_29_0_Layer0_1_MEMBER_1_STROKES_1_FILL"/>
</g>

<g transform="matrix( 1, 0, 0, 1, -210.75,-26.5) ">
<use xlink:href="#Symbol_29_0_Layer0_1_MEMBER_2_STROKES_1_FILL"/>
</g>

<g transform="matrix( 1, 0, 0, 1, -210.75,-26.5) ">
<use xlink:href="#Symbol_29_0_Layer0_1_MEMBER_3_STROKES_1_FILL"/>
</g>

<g transform="matrix( 1, 0, 0, 1, 0,0) ">
<use xlink:href="#Symbol_29_0_Layer0_1_MEMBER_4_FILL"/>
</g>

<g transform="matrix( 1, 0, 0, 1, 0,0) ">
<use xlink:href="#Symbol_29_0_Layer0_1_MEMBER_4_MEMBER_0_1_STROKES"/>
</g>

<g transform="matrix( 1, 0, 0, 1, -210.75,-26.5) ">
<use xlink:href="#Symbol_29_0_Layer0_1_MEMBER_4_MEMBER_0_MEMBER_0_STROKES_1_FILL"/>
</g>

<g transform="matrix( 1, 0, 0, 1, 0,0) ">
<use xlink:href="#Symbol_29_0_Layer0_1_MEMBER_5_FILL"/>
</g>

<g transform="matrix( 1, 0, 0, 1, 0,0) ">
<use xlink:href="#Symbol_29_0_Layer0_1_MEMBER_5_MEMBER_0_1_STROKES"/>
</g>

<g transform="matrix( 1, 0, 0, 1, -210.75,-26.5) ">
<use xlink:href="#Symbol_29_0_Layer0_1_MEMBER_5_MEMBER_0_MEMBER_0_STROKES_1_FILL"/>
</g>

<g transform="matrix( 1, 0, 0, 1, -210.75,-26.5) ">
<use xlink:href="#Symbol_29_0_Layer0_1_MEMBER_5_MEMBER_0_MEMBER_1_STROKES_1_FILL"/>
</g>

<g transform="matrix( 1, 0, 0, 1, -210.75,-26.5) ">
<use xlink:href="#Symbol_29_0_Layer0_1_MEMBER_5_MEMBER_0_MEMBER_2_STROKES_1_FILL"/>
</g>

<g transform="matrix( 1, 0, 0, 1, -210.75,-26.5) ">
<use xlink:href="#Symbol_29_0_Layer0_1_MEMBER_6_STROKES_1_FILL"/>
</g>

<g transform="matrix( 1, 0, 0, 1, -210.75,-26.5) ">
<use xlink:href="#Symbol_29_0_Layer0_1_MEMBER_7_STROKES_1_FILL"/>
</g>

<g transform="matrix( 1, 0, 0, 1, 0,0) ">
<use xlink:href="#Symbol_29_0_Layer0_1_MEMBER_8_FILL"/>
</g>

<g transform="matrix( 1, 0, 0, 1, -210.75,-26.5) ">
<use xlink:href="#Symbol_29_0_Layer0_1_MEMBER_8_MEMBER_0_STROKES_1_FILL"/>
</g>

<g transform="matrix( 1, 0, 0, 1, -210.4,-29.7) ">
<use xlink:href="#Symbol_29_0_Layer0_1_MEMBER_8_MEMBER_1_STROKES_1_FILL"/>
</g>

<g transform="matrix( 1, 0, 0, 1, -215.25,-23.1) ">
<use xlink:href="#Symbol_29_0_Layer0_1_MEMBER_9_MEMBER_0_STROKES_1_FILL"/>
</g>

<g transform="matrix( 1, 0, 0, 1, -210.75,-26.5) ">
<use xlink:href="#Symbol_29_0_Layer0_1_MEMBER_10_MEMBER_0_STROKES_1_FILL"/>
</g>

<g transform="matrix( 1, 0, 0, 1, 0,0) ">
<use xlink:href="#Symbol_29_0_Layer0_1_MEMBER_11_FILL"/>
</g>

<g transform="matrix( 1, 0, 0, 1, -214,-32.25) ">
<use xlink:href="#Symbol_29_0_Layer0_1_MEMBER_11_MEMBER_0_STROKES_1_FILL"/>
</g>
</g>
</g>
</svg>
