
<svg xmlns="http://www.w3.org/2000/svg" version="1.1" xmlns:xlink="http://www.w3.org/1999/xlink" preserveAspectRatio="none" x="0px" y="0px" width="384px" height="262px" viewBox="0 0 384 262">
<defs>
<g id="Symbol_27_0_Layer0_0_FILL">
<path fill="#FBCBAA" stroke="none" d="
M 236.35 525.65
L 236.35 549.15
Q 237.25 568.95 259.55 585.15 260.9 586.05 262.3 586.95 305.2 613.95 356.1 610.55 445.65 601.65 444.65 537.15
L 444.6 442.25 443.95 399.45 236.35 399.45 236.35 525.65 Z"/>

<path fill="#22201E" stroke="none" d="
M 692.8 789.3
Q 699.06953125 787.1572265625 705.4 784.95
L 695.65 731.15
Q 677.8373046875 633.293359375 625.65 606.2
L 444.65 537.15
Q 445.65 601.65 356.1 610.55 305.2 613.95 262.3 586.95 260.9 586.05 259.55 585.15 237.25 568.95 236.35 549.15
L 236.35 525.65 78.05 590.85
Q 47.85 604.75 35.2 625.65 34 627.6 32.85 629.65 31.75 631.6 30.7 633.65 29.65 635.6 28.65 637.65 11.3 672.75 0 731.7 -10.966796875 805.7029296875 -7.5 813.15 27.83515625 842.6021484375 75.4 859.85 442.994140625 941.1923828125 692.8 789.3 Z"/>
</g>

<g id="Symbol_27_0_Layer0_1_FILL">
<path fill="#0E0602" stroke="none" d="
M 236.35 549.15
L 236.35 525.65 78.05 590.85
Q 47.85 604.75 35.2 625.65 34 627.6 32.85 629.65 31.75 631.6 30.7 633.65 29.65 635.6 28.65 637.65 11.3 672.75 0 731.7 -10.966796875 805.7029296875 -7.5 813.15 27.83515625 842.6021484375 75.4 859.85 61.601171875 824.1681640625 77.55 762.05
L 77.55 762.05
Q 93.5 699.45 131 640.45 160.15 588.8 236.35 549.15 Z"/>

<path fill="#E6B899" stroke="none" d="
M 262.35 478.8
L 271 399.45 236.35 399.45 236.35 525.65 236.35 549.15
Q 237.25 568.95 259.55 585.15 260.9 586.05 262.3 586.95 258.05 571.35 260.55 513.45 261.2 497.7 262.35 478.8 Z"/>

<path fill="#FBCBAA" stroke="none" d="
M 271 399.45
L 262.35 478.8
Q 261.2 497.7 260.55 513.45 258.05 571.35 262.3 586.95 305.2 613.95 356.1 610.55 445.65 601.65 444.65 537.15
L 444.6 442.25 443.95 399.45 271 399.45 Z"/>

<path fill="#747472" stroke="none" d="
M 682.95 736.4
Q 682.926171875 736.4095703125 682.9 736.4
L 692.8 789.3
Q 699.06953125 787.1572265625 705.4 784.95
L 695.65 731.15
Q 677.8373046875 633.293359375 625.65 606.2
L 614.8 602.1
Q 668.75 651 682.95 736.4 Z"/>

<path fill="#22201E" stroke="none" d="
M 682.9 736.4
Q 682.926171875 736.4095703125 682.95 736.4 668.75 651 614.8 602.1
L 444.65 537.15
Q 445.65 601.65 356.1 610.55 305.2 613.95 262.3 586.95 260.9 586.05 259.55 585.15 237.25 568.95 236.35 549.15 160.15 588.8 131 640.45 93.5 699.45 77.55 762.05
L 77.55 762.05
Q 61.601171875 824.1681640625 75.4 859.85 442.994140625 941.1923828125 692.8 789.3
L 682.9 736.4 Z"/>
</g>

<path id="Symbol_27_0_Layer0_1_1_STROKES" stroke="#000000" stroke-width="1" stroke-linejoin="round" stroke-linecap="round" fill="none" d="
M 75.4 859.875
Q 442.994140625 941.1923828125 692.8 789.325
L 682.9 736.425"/>

<path id="Symbol_27_0_Layer0_1_2_STROKES" stroke="#000000" stroke-width="4" stroke-linejoin="round" stroke-linecap="round" fill="none" d="
M 614.8 602.1
L 444.65 537.15
Q 445.65 601.65 356.1 610.55 305.2 613.95 262.3 586.95 260.9 586.05 259.55 585.15 237.25 568.95 236.35 549.15
M 705.4 784.95
L 695.65 731.15
Q 677.8373046875 633.293359375 625.65 606.2
L 614.8 602.1
M 236.35 549.15
L 236.35 525.65 236.35 399.45
M 443.95 399.45
L 444.6 442.25 444.65 537.15
M 236.35 525.65
L 78.05 590.85
Q 47.85 604.75 35.2 625.65 34 627.6 32.85 629.65 31.75 631.6 30.7 633.65 29.65 635.6 28.65 637.65 11.3 672.75 0 731.7 -10.966796875 805.7029296875 -7.5 813.15"/>
</defs>

<g id="dan_mc" transform="matrix( 0.5336761474609375, 0, 0, 0.5336761474609375, 6.05,-213) ">
<g transform="matrix( 1, 0, 0, 1, 0,0) ">
<use xlink:href="#Symbol_27_0_Layer0_0_FILL"/>
</g>

<g transform="matrix( 1, 0, 0, 1, 0,0) ">
<use xlink:href="#Symbol_27_0_Layer0_1_FILL"/>

<use xlink:href="#Symbol_27_0_Layer0_1_1_STROKES"/>

<use xlink:href="#Symbol_27_0_Layer0_1_2_STROKES"/>
</g>
</g>
</svg>
