
<svg xmlns="http://www.w3.org/2000/svg" version="1.1" xmlns:xlink="http://www.w3.org/1999/xlink" preserveAspectRatio="none" x="0px" y="0px" width="253px" height="259px" viewBox="0 0 253 259">
<defs>
<g id="Symbol_1_0_Layer0_0_FILL">
<path fill="#FBCBAA" stroke="none" d="
M 663.65 95.95
L 659.75 98.9
Q 659.2263671875 99.3703125 658.65 99.8 651.2873046875 106.0638671875 644.8 114.75 623.55 143.3 612.15 198.25 606.6216796875 224.88359375 600.7 246.35 600.69921875 246.5146484375 600.7 246.65 599.4025390625 253.687890625 597.7 256.9 594.4966796875 267.6041015625 591.2 276.85 584.51328125 295.605859375 577.35 308.4 585.1953125 318.2541015625 597.95 327.95 598.078515625 328.0578125 598.2 328.15 610.5 373.65 633.1 403.9 644.7 419.4 659.1 430.9 691.6 458.8 732.2 459.05 735.2 459.05 738.2 458.95 780.55 457.35 806.85 433.25 826.95 414.9 841.35 394.35 867.35 357.25 875 312.95 875.024609375 312.9296875 875.05 312.9 893.155078125 297.9390625 899.25 282.4 898.4626953125 280.4896484375 897.7 278.55
L 897.65 278.5
Q 897.437890625 278.323828125 897.2 278.15 891.2625 272.0125 885.3 265.85 883.7298828125 263.8947265625 882.25 261.8 882.0662109375 261.5392578125 881.85 261.25 877.93125 255.580859375 874.7 249.1 869.5 237.95 861.95 212.7 861.15 209.6 860.4 206.55 845.75 150.95 828.05 125.1 817.95 110 808.65 100.65 733.4171875 140.638671875 668.45 98.45 666.31953125 97.0716796875 664.2 95.6 663.9318359375 95.7857421875 663.65 95.95
M 823.05 182.75
Q 823.6369140625 182.9970703125 824.2 183.25 825.3505859375 183.7607421875 826.4 184.3 831.3568359375 186.737109375 834.75 189.65
L 834.85 189.75
Q 835.0671875 189.93515625 835.25 190.1 838.45 192.95 841.9 198.05 845 202.75 845.3 205.95 845.35 206.4 845.35 206.9 846.3 207.85 846.65 209.25 846.8 209.9 846.85 210.85 846.85 211.35 846.85 212.45 846.85 213.05 846.9 214.25 846.85 215.15 846.45 215.95
L 846.65 216.55
Q 846.872265625 217.2169921875 846.9 217.65 846.95 217.8205078125 846.95 217.95
L 846.75 218.85 846.7 218.85
Q 846.3412109375 219.70703125 845.85 220.1 845.7 220.25 845.55 220.35
L 845.95 220.85 846 221.1 846.1 221.2 846.15 221.5 846.15 221.6 846.1 221.85 846 222.1
Q 845.970703125 222.148828125 845.95 222.2 845.840234375 222.359765625 845.8 222.4 845.6 222.6 845.5 222.6
L 845.45 222.65
Q 845.35 222.6 845.15 222.7
L 844.95 222.65 844.55 222.5 844.45 222.45 844.4 222.35 844.25 222.2 844.2 222 843.95 221.65 843.9 221.55 843.85 221.4 843.65 221.05 843.55 220.8
Q 843.28359375 220.7515625 843 220.65 842.709375 220.57890625 842.4 220.45
L 841.85 220.1 841.5 219.65
Q 841.2177734375 219.2873046875 841 218.9 840.988671875 218.8373046875 840.95 218.75 840.8349609375 218.692578125 840.7 218.65 840.60625 218.6212890625 840.5 218.6 839 218.2 838.05 217.05
L 836.5 215.25
Q 836.4150390625 215.24140625 836.3 215.2 833.9509765625 214.9375 831.2 213.2 827.2 210.3 825.2 209 820.7 206.15 813.6 204.85 805.25 203.7 801.1 203.05 798.9 202.65 797.05 202.35 796.95 202.35 796.85 202.35 794.2 201.85 792.25 201.55 792.05 201.5 791.9 201.5
L 793.25 201.75
Q 791.7 201.5 790.4 201.3 788.223828125 200.98203125 786.55 200.75 783.3140625 200.3166015625 782.15 200.25 780.4 200.2 778.85 200.25 776.2 200.35 775.45 200.35 773.5 200.25 772.2 199.55 769.95 198.4 768.45 194.75 766.25 189.25 765.9 188.75 765.8318359375 188.6478515625 764.85 187.35 764.4376953125 186.794921875 763.8 185.95 762.5 184.3 762.1 182.95 761.45 180.75 762.75 178.55 762.9435546875 178.2169921875 763.15 177.9 764.3484375 176.31484375 766.25 175.85 766.75 175.75 768.15 175.65
L 768.2 175.65
Q 769.35 175.55 770 175.35 770.0642578125 175.337109375 770.2 175.25 770.726171875 175.068359375 772.1 174.4
L 771 174.75
Q 772.85 174.1 773.05 174.05 773.7 173.85 774.25 173.9
L 774.2 174.2
Q 775.1 174.25 776 174.3 788.6248046875 175.00390625 796.9 176.1 798.048046875 176.24375 799.1 176.4 812.75 178.45 823.05 182.75
M 661.45 178.5
Q 663.97109375 177.6033203125 666.6 177.3 667.8921875 177.18671875 669.2 177.2 669.2 177.15 669.25 177.15
L 669.25 177.1 669.3 177.1
Q 669.563671875 176.894921875 669.85 176.7 670.5076171875 176.2828125 671.25 176 672.55 175.5 675.3 175.3 679.45 175 685.75 175
L 685.75 174.8
Q 687.1 174.95 689.4 174.85 692.2 174.75 693 174.75 693.8564453125 174.7841796875 694.6 174.85 696.1337890625 175.07265625 697.35 175.5 697.7 175.2 698.15 174.95
L 698.2 174.9
Q 699.6259765625 174.156640625 700.95 174.5
L 700.95 174.4
Q 702.9748046875 174.3220703125 704.75 175.15 705.26328125 175.390234375 705.75 175.7 708.05 177.2 708.4 179.55 708.55 180.75 708.15 182.3 708 182.95 707.25 185 705.9 188.85 705.2 192.55 704.7 195.3 704.4 196.2 703.8 198.2 702.65 199.35 701.0494140625 200.986328125 698.3 201.25 697.2341796875 201.4009765625 695.95 201.3 695.5109375 201.2662109375 694.95 201.15 693.8900390625 201.0310546875 692.4 200.7 689.9 200.2 688.85 200.05 685.75 199.65 681.8 200.25 679.45 200.65 674.8 201.8 668.44140625 203.4275390625 664.4 204.65 663.144921875 205.04765625 662.1 205.4 660 206.1 656.4 207.5 652.4 209.05 650.75 209.65 648 210.65 646.6 211.15 644.2 212.05 642.55 212.85 640.9 213.7 640.1 214.1 640 214.15 639.9 214.2 639.05 214.85 638.25 215.5 636.7 216.65 635.4 217.55 633.3 219.05 631.8 219.4 631.121875 219.56953125 630.4 219.55 629.5005859375 219.545703125 628.55 219.2 626.9 218.65 625.85 217.35 625.7875 217.27890625 625.7 217.2 625.197265625 216.56328125 624.85 215.8 624.6099609375 215.1193359375 624.5 214.35 624.25 212.65 624.9 211.05 625.1 210.6 625.8 209.35 625.8443359375 209.278515625 625.85 209.2 626.06328125 208.898046875 626.2 208.6 626.5232421875 208.062109375 626.65 207.65 626.85 207.1 627 206.2 627.08671875 205.6224609375 627.15 205.2 627.2078125 204.9111328125 627.25 204.7 627.75 202.3 629.55 199.35 633.15625 193.6296875 639.15 189.1 640.4080078125 188.18046875 641.75 187.3 645.15 185.05 647.95 184.5
L 648 184.65
Q 648.2 184.65 648.4 184.65 648.6 184.65 648.8 184.7 649.3 184.15 649.9 183.7 650.95 182.95 652.75 182.25 653.75 181.85 655.8 181.05 657.15 180.5 659.75 179.2 660.5904296875 178.8212890625 661.45 178.5 Z"/>

<path fill="#5C493A" stroke="none" d="
M 666.6 177.3
Q 663.97109375 177.6033203125 661.45 178.5 660.5904296875 178.8212890625 659.75 179.2 657.15 180.5 655.8 181.05 653.75 181.85 652.75 182.25 650.95 182.95 649.9 183.7 649.3 184.15 648.8 184.7 648.6 184.65 648.4 184.65 648.2 184.65 648 184.65
L 647.95 184.5
Q 645.15 185.05 641.75 187.3 640.4080078125 188.18046875 639.15 189.1 633.15625 193.6296875 629.55 199.35 627.75 202.3 627.25 204.7 627.2078125 204.9111328125 627.15 205.2 627.08671875 205.6224609375 627 206.2 626.85 207.1 626.65 207.65 626.5232421875 208.062109375 626.2 208.6 626.06328125 208.898046875 625.85 209.2 625.8443359375 209.278515625 625.8 209.35 625.1 210.6 624.9 211.05 624.25 212.65 624.5 214.35 624.6099609375 215.1193359375 624.85 215.8 625.197265625 216.56328125 625.7 217.2 625.7875 217.27890625 625.85 217.35 626.9 218.65 628.55 219.2 629.5005859375 219.545703125 630.4 219.55 631.121875 219.56953125 631.8 219.4 633.3 219.05 635.4 217.55 636.7 216.65 638.25 215.5 639.05 214.85 639.9 214.2 640 214.15 640.1 214.1 640.9 213.7 642.55 212.85 644.2 212.05 646.6 211.15 648 210.65 650.75 209.65 652.4 209.05 656.4 207.5 660 206.1 662.1 205.4 663.144921875 205.04765625 664.4 204.65 668.44140625 203.4275390625 674.8 201.8 679.45 200.65 681.8 200.25 685.75 199.65 688.85 200.05 689.9 200.2 692.4 200.7 693.8900390625 201.0310546875 694.95 201.15 695.5109375 201.2662109375 695.95 201.3 697.2341796875 201.4009765625 698.3 201.25 701.0494140625 200.986328125 702.65 199.35 703.8 198.2 704.4 196.2 704.7 195.3 705.2 192.55 705.9 188.85 707.25 185 708 182.95 708.15 182.3 708.55 180.75 708.4 179.55 708.05 177.2 705.75 175.7 705.26328125 175.390234375 704.75 175.15 702.9748046875 174.3220703125 700.95 174.4
L 700.95 174.5
Q 699.6259765625 174.156640625 698.2 174.9
L 698.15 174.95
Q 697.7 175.2 697.35 175.5 696.1337890625 175.07265625 694.6 174.85 693.8564453125 174.7841796875 693 174.75 692.2 174.75 689.4 174.85 687.1 174.95 685.75 174.8
L 685.75 175
Q 679.45 175 675.3 175.3 672.55 175.5 671.25 176 670.5076171875 176.2828125 669.85 176.7 669.563671875 176.894921875 669.3 177.1
L 669.25 177.1 669.25 177.15
Q 669.2 177.15 669.2 177.2 667.8921875 177.18671875 666.6 177.3
M 824.2 183.25
Q 823.6369140625 182.9970703125 823.05 182.75 812.75 178.45 799.1 176.4 798.048046875 176.24375 796.9 176.1 788.6248046875 175.00390625 776 174.3 775.1 174.25 774.2 174.2
L 774.25 173.9
Q 773.7 173.85 773.05 174.05 772.85 174.1 771 174.75
L 772.1 174.4
Q 770.726171875 175.068359375 770.2 175.25 770.0642578125 175.337109375 770 175.35 769.35 175.55 768.2 175.65
L 768.15 175.65
Q 766.75 175.75 766.25 175.85 764.3484375 176.31484375 763.15 177.9 762.9435546875 178.2169921875 762.75 178.55 761.45 180.75 762.1 182.95 762.5 184.3 763.8 185.95 764.4376953125 186.794921875 764.85 187.35 765.8318359375 188.6478515625 765.9 188.75 766.25 189.25 768.45 194.75 769.95 198.4 772.2 199.55 773.5 200.25 775.45 200.35 776.2 200.35 778.85 200.25 780.4 200.2 782.15 200.25 783.3140625 200.3166015625 786.55 200.75 788.223828125 200.98203125 790.4 201.3 791.7 201.5 793.25 201.75
L 791.9 201.5
Q 792.05 201.5 792.25 201.55 794.2 201.85 796.85 202.35 796.95 202.35 797.05 202.35 798.9 202.65 801.1 203.05 805.25 203.7 813.6 204.85 820.7 206.15 825.2 209 827.2 210.3 831.2 213.2 833.9509765625 214.9375 836.3 215.2 836.4150390625 215.24140625 836.5 215.25
L 838.05 217.05
Q 839 218.2 840.5 218.6 840.60625 218.6212890625 840.7 218.65 840.8349609375 218.692578125 840.95 218.75 840.988671875 218.8373046875 841 218.9 841.2177734375 219.2873046875 841.5 219.65
L 841.85 220.1 842.4 220.45
Q 842.709375 220.57890625 843 220.65 843.28359375 220.7515625 843.55 220.8
L 843.65 221.05 843.85 221.4 843.9 221.55 843.95 221.65 844.2 222 844.25 222.2 844.4 222.35 844.45 222.45 844.55 222.5 844.95 222.65 845.15 222.7
Q 845.35 222.6 845.45 222.65
L 845.5 222.6
Q 845.6 222.6 845.8 222.4 845.840234375 222.359765625 845.95 222.2 845.970703125 222.148828125 846 222.1
L 846.1 221.85 846.15 221.6 846.15 221.5 846.1 221.2 846 221.1 845.95 220.85 845.55 220.35
Q 845.7 220.25 845.85 220.1 846.3412109375 219.70703125 846.7 218.85
L 846.75 218.85 846.95 217.95
Q 846.95 217.8205078125 846.9 217.65 846.872265625 217.2169921875 846.65 216.55
L 846.45 215.95
Q 846.85 215.15 846.9 214.25 846.85 213.05 846.85 212.45 846.85 211.35 846.85 210.85 846.8 209.9 846.65 209.25 846.3 207.85 845.35 206.9 845.35 206.4 845.3 205.95 845 202.75 841.9 198.05 838.45 192.95 835.25 190.1 835.0671875 189.93515625 834.85 189.75
L 834.75 189.65
Q 831.3568359375 186.737109375 826.4 184.3 825.3505859375 183.7607421875 824.2 183.25 Z"/>

<path fill="#5B4A3B" stroke="none" d="
M 934.9 173.3
Q 933.8751953125 170.2998046875 932.75 167.3 906.8375 118.975 880.9 70.65 811.9 -24.75 733.7 8.65 723.25 1.95 708.85 0.6 661.7 0.4 626.25 22.25 540.05 75.35 522.8 258.65 520.95 285.5 507.3 298.7 520.85 296.4 529.25 289.6 524.25 348.15 540.25 398.6 540 379.6 549.25 359.1
L 552.75 334.6
Q 565.669921875 329.4548828125 577.35 308.4 584.51328125 295.605859375 591.2 276.85 594.4966796875 267.6041015625 597.7 256.9 599.205859375 251.796484375 600.7 246.35 606.6216796875 224.88359375 612.15 198.25 623.55 143.3 644.8 114.75 651.2873046875 106.0638671875 658.65 99.8 659.2263671875 99.3703125 659.75 98.9
L 663.65 95.95
Q 663.9318359375 95.7857421875 664.2 95.6 666.31953125 97.0716796875 668.45 98.45 733.4171875 140.638671875 808.65 100.65 817.95 110 828.05 125.1 845.75 150.95 860.4 206.55 861.15 209.6 861.95 212.7 869.5 237.95 874.7 249.1 877.93125 255.580859375 881.85 261.25 882.0662109375 261.5392578125 882.25 261.8 883.7298828125 263.8947265625 885.3 265.85 891.2625 272.0125 897.2 278.15 897.437890625 278.323828125 897.65 278.5
L 897.7 278.55
Q 898.4626953125 280.4896484375 899.25 282.4 914.6521484375 320.1384765625 937.15 347.25 941.062109375 351.901953125 945.15 356.25 948.1 358.85 950.8 360 944.9 355.25 956.35 331.4 956.65 330.6 956.95 329.8 968.15 298.6 955.75 265.6
L 940.65 224.6
Q 948.975 228.8375 957.3 233.05 962.9189453125 234.99609375 968.2 235.45
L 964.95 230.05
Q 964.7 229.95 964.4 229.8 957.009765625 226.2259765625 947.75 206.25 941.7203125 193.2486328125 934.9 173.3 Z"/>
</g>

<g id="Symbol_1_0_Layer0_1_MEMBER_0_FILL">
<path fill="#E6B899" stroke="none" d="
M 124.95 121.1
Q 124.75 121.3 124.6 121.55
L 125.05 121
Q 125.00546875 121.046484375 124.95 121.1
M 196.5 76.25
Q 177.25 75.55 164.35 80.25 151.4 84.95 145.9 93.35 144.15 97.25 139.2 103.9
L 139.15 103.95
Q 133.3388671875 112.9896484375 125.05 121
L 124.6 121.55
Q 124.35 121.8 124.1 122.1 123.8 122.45 123.5 122.8 105.25 144.45 99.3 171.85 92.05 201.2 93 228.8 93.35 238.7 93.4 246.65 90.1 264.55 84.1 257.65 72.05 239.55 60.7 261.35 47.7 295.4 90.9 328.15 103.2 373.65 125.8 403.9 137.4 419.4 151.8 430.9 184.3 458.8 224.9 459.05 179.55 443.7 159.9 418.55 130.45 379.4 121.4 331.6 103.5 258 128.25 163.6 133.95 137.95 141.75 122.1 148.9 107.5 157.9 101.25 175.75 84.1 231.05 77.55 215.75 76.9 196.5 76.25 Z"/>

<path fill="#FBCBAA" stroke="none" d="
M 358.95 182.6
Q 346.35 136.8 329.7 116.1 305.05 82.75 248.4 78.65 239.3 77.85 231.05 77.55 175.75 84.1 157.9 101.25 148.9 107.5 141.75 122.1 133.95 137.95 128.25 163.6 103.5 258 121.4 331.6 130.45 379.4 159.9 418.55 179.55 443.7 224.9 459.05 227.9 459.05 230.9 458.95 273.25 457.35 299.55 433.25 319.65 414.9 334.05 394.35 360.05 357.25 367.7 312.95 404.2 282.8 391.95 250.35 388.05 241 384.2 238.6 377.4 232.5 369.8 242.25 363.9 246.75 361.2 224.6 362.9 197.75 358.95 182.6 Z"/>
</g>

<g id="Symbol_1_0_Layer0_1_MEMBER_0_MEMBER_0_STROKES_1_FILL">
<path fill="#000000" stroke="none" d="
M 241.75 338.15
Q 241 337.45 239.95 336.7
L 239.75 336.5 239.5 336.4 239.05 336.15 238.6 336 237.65 335.85 236.1 336.05 236.75 337.4 237.2 338.1 237.95 338.9 239.7 340.35
Q 241.1 341.75 241.8 342.55
L 244.1 345.4 249.35 353.5
Q 249.8 354.3 250.55 354.9 251.15 355.3 252.35 355.8 252.55 354.35 252.5 353.85 252.45 352.95 251.9 352.05
L 246.7 343.9 245.9 342.9
Q 245.1 341.75 244.05 340.55 243.3 339.7 241.75 338.15 Z"/>
</g>

<g id="Symbol_1_0_Layer0_1_MEMBER_0_MEMBER_1_STROKES_1_FILL">
<path fill="#000000" stroke="none" d="
M 401.8 455
L 401.55 455 400.15 455.25 399.95 455.25 396.45 455.55
Q 394.45 455.55 393.4 455.45 392 455.4 390.45 455.05 389.55 454.9 387.95 454.45
L 387.4 454.3 385.75 453.65 383.2 452.85
Q 380.95 451.95 381 452
L 379.65 451.6
Q 378.95 451.5 378.75 451.6 378.45 451.8 378.65 452.3
L 378.8 452.6 378.9 452.75 379 452.95 380.95 455.1 382.25 456.15 382.4 456.3 383.8 457.2 383.85 457.2
Q 383.85 457.25 384 457.25
L 386.55 458.2
Q 387.7 458.6 389.5 458.95 390.95 459.3 393 459.45 394.95 459.6 396.45 459.55 397.7 459.55 399.5 459.35
L 402.3 458.95 402.5 458.95 402.65 458.75
Q 403.45 456.45 401.9 455.05 401.8 454.85 401.8 455 Z"/>
</g>

<g id="Symbol_1_0_Layer0_1_MEMBER_0_MEMBER_2_STROKES_1_FILL">
<path fill="#000000" stroke="none" d="
M 463.6 424.05
L 455.2 432.1 454.9 432.3 452.5 434.25
Q 448.1 437.75 444.25 440.2
L 440.35 442.6 440.05 442.85 434.1 446.7
Q 432.8 447.5 433.1 447.35 431.25 448.7 431.15 448.8 430.3 449.45 430.25 449.8 430.2 450.15 431 450.1 431.55 450.1 432.2 449.9 433.1 449.7 434 449.4
L 435.3 449 441.8 446.4 442 446.3 453.1 438.9 461.7 431.65 466.5 426.8 466.6 426.5
Q 466.55 424.9 465.5 424.3 464.75 423.85 463.8 423.95
L 463.6 424.05 Z"/>
</g>

<g id="Symbol_1_0_Layer0_1_MEMBER_0_MEMBER_3_STROKES_1_FILL">
<path fill="#000000" stroke="none" d="
M 442.15 441.6
L 436.35 445.15
Q 433.7 446.6 430.3 448.1 427 449.55 423.05 450.8 419.4 452 415.65 452.85
L 414.3 453.15 402.55 454.9 402.4 454.95 392.05 456.05
Q 391.5 456.05 391.25 456.1
L 386.95 456.55
Q 385.45 456.8 385.15 457.05 384.85 457.35 385.9 457.7
L 388.7 458.25 402.45 458.95 416.15 456.85
Q 420.7 455.75 424 454.7
L 425 454.4 431.7 451.85
Q 434.75 450.5 438.2 448.7
L 439.7 447.85 439.85 447.75 440.15 447.6 442.65 446.05 442.85 445.95 443.05 445.8 444.45 444.9 444.65 444.55
Q 445.3 442.7 444.35 441.95 443.7 441.4 442.45 441.5 442.35 441.5 442.15 441.6 Z"/>
</g>

<g id="Symbol_1_0_Layer0_1_MEMBER_0_MEMBER_4_FILL">
<path fill="#5C493A" stroke="none" d="
M 327.95 190.1
Q 327.704296875 189.8783203125 327.45 189.65 324.0544921875 186.7361328125 319.1 184.3 318.051953125 183.761328125 316.9 183.25 316.3369140625 182.9970703125 315.75 182.75 305.45 178.45 291.8 176.4 290.791796875 176.2501953125 289.7 176.1 281.396484375 175.0078125 268.7 174.3 267.8 174.25 266.9 174.2
L 266.95 173.9
Q 266.4 173.85 265.75 174.05 265.55 174.1 263.7 174.75
L 264.8 174.4
Q 263.4265625 175.0681640625 262.9 175.25 262.764453125 175.337109375 262.7 175.35 262.05 175.55 260.9 175.65
L 260.85 175.65
Q 259.45 175.75 258.95 175.85 257.048828125 176.3146484375 255.85 177.9 255.64375 178.2166015625 255.45 178.55 254.15 180.75 254.8 182.95 255.2 184.3 256.5 185.95 257.1314453125 186.78671875 257.55 187.35 258.531640625 188.647265625 258.6 188.75 258.95 189.25 261.15 194.75 262.65 198.4 264.9 199.55 266.2 200.25 268.15 200.35 268.9 200.35 271.55 200.25 273.1 200.2 274.85 200.25 276.0138671875 200.31640625 279.25 200.75 280.92265625 200.9818359375 283.1 201.3 284.4 201.5 285.95 201.75
L 284.6 201.5
Q 284.75 201.5 284.95 201.55 286.9 201.85 289.55 202.35 289.65 202.35 289.75 202.35 291.6 202.65 293.8 203.05 297.95 203.7 306.3 204.85 313.4 206.15 317.9 209 319.9 210.3 323.9 213.2 326.6615234375 214.944140625 329.05 215.2 329.123828125 215.2421875 329.2 215.25
L 330.75 217.05
Q 331.7 218.2 333.2 218.6 333.319921875 218.6240234375 333.4 218.65 333.5458984375 218.6978515625 333.65 218.75 333.6841796875 218.8267578125 333.7 218.9 333.909765625 219.2767578125 334.2 219.65
L 334.55 220.1 335.1 220.45
Q 335.415625 220.5814453125 335.7 220.65 335.9892578125 220.7525390625 336.25 220.8
L 336.35 221.05 336.55 221.4 336.6 221.55 336.65 221.65 336.9 222 336.95 222.2 337.1 222.35 337.15 222.45 337.25 222.5 337.65 222.65 337.85 222.7
Q 338.05 222.6 338.15 222.65
L 338.2 222.6
Q 338.3 222.6 338.5 222.4 338.540234375 222.359765625 338.65 222.2 338.6705078125 222.1490234375 338.7 222.1
L 338.8 221.85 338.85 221.6 338.85 221.5 338.8 221.2 338.7 221.1 338.65 220.85 338.25 220.35
Q 338.4 220.25 338.55 220.1 339.0361328125 219.7111328125 339.4 218.9 339.4388671875 218.8736328125 339.45 218.85
L 339.65 217.95
Q 339.65 217.838671875 339.6 217.7 339.583203125 217.2498046875 339.35 216.55
L 339.15 215.95
Q 339.55 215.15 339.6 214.25 339.55 213.05 339.55 212.45 339.55 211.35 339.55 210.85 339.5 209.9 339.35 209.25 339 207.85 338.05 206.9 338.05 206.4 338 205.95 337.7 202.75 334.6 198.05 331.15 192.95 327.95 190.1
M 163.95 176
Q 163.2076171875 176.2828125 162.55 176.7 162.263671875 176.894921875 162 177.1
L 161.95 177.1 161.95 177.15
Q 161.9 177.15 161.9 177.2 160.5921875 177.18671875 159.3 177.3 156.67109375 177.6033203125 154.15 178.5 153.2904296875 178.8212890625 152.45 179.2 149.85 180.5 148.5 181.05 146.45 181.85 145.45 182.25 143.65 182.95 142.6 183.7 142 184.15 141.5 184.7 141.3 184.65 141.1 184.65 140.9 184.65 140.7 184.65
L 140.65 184.5
Q 137.85 185.05 134.45 187.3 133.1080078125 188.18046875 131.85 189.1 125.85625 193.6296875 122.25 199.35 120.45 202.3 119.95 204.7 119.9078125 204.9111328125 119.85 205.2 119.78671875 205.6224609375 119.7 206.2 119.55 207.1 119.35 207.65 119.22109375 208.0689453125 118.9 208.65 118.7310546875 208.9767578125 118.5 209.35 117.8 210.6 117.6 211.05 116.95 212.65 117.2 214.35 117.4359375 216.0009765625 118.4 217.2 118.4876953125 217.279296875 118.55 217.35 119.6 218.65 121.25 219.2 122.20078125 219.545703125 123.1 219.55 123.821875 219.56953125 124.5 219.4 126 219.05 128.1 217.55 129.4 216.65 130.95 215.5 131.75 214.85 132.6 214.2 132.7 214.15 132.8 214.1 133.6 213.7 135.25 212.85 136.9 212.05 139.3 211.15 140.7 210.65 143.45 209.65 145.1 209.05 149.1 207.5 152.7 206.1 154.8 205.4 155.8833984375 205.034765625 157.2 204.6 161.2162109375 203.4083984375 167.5 201.8 172.15 200.65 174.5 200.25 178.45 199.65 181.55 200.05 182.6 200.2 185.1 200.7 186.588671875 201.030859375 187.65 201.15 188.21015625 201.2662109375 188.65 201.3 189.9333984375 201.4009765625 191 201.25 193.7490234375 200.98671875 195.35 199.35 196.5 198.2 197.1 196.2 197.4 195.3 197.9 192.55 198.6 188.85 199.95 185 200.7 182.95 200.85 182.3 201.25 180.75 201.1 179.55 200.75 177.2 198.45 175.7 197.96328125 175.390234375 197.45 175.15 195.6748046875 174.3220703125 193.65 174.4
L 193.65 174.5
Q 192.3259765625 174.156640625 190.9 174.9
L 190.85 174.95
Q 190.4 175.2 190.05 175.5 188.8337890625 175.07265625 187.3 174.85 186.5564453125 174.7841796875 185.7 174.75 184.9 174.75 182.1 174.85 179.8 174.95 178.45 174.8
L 178.45 175
Q 172.15 175 168 175.3 165.25 175.5 163.95 176 Z"/>
</g>

<g id="Symbol_1_0_Layer0_1_MEMBER_0_MEMBER_5_FILL">
<path fill="#382C22" stroke="none" d="
M 140.7 184.6
Q 137.9 185.15 134.5 187.4 126.65 192.55 122.3 199.45 120.5 202.4 120 204.8 119.9 205.3 119.75 206.3 119.6 207.2 119.4 207.75 119.2 208.4 118.55 209.45 117.85 210.7 117.65 211.15 117 212.75 117.25 214.45 117.5 216.2 118.6 217.45 119.65 218.75 121.3 219.3 122.95 219.9 124.55 219.5 126.05 219.15 128.15 217.65 129.45 216.75 131 215.6 131.8 197.35 141.15 184.75 140.95 184.75 140.75 184.75
L 140.7 184.6 Z"/>

<path fill="#5C493A" stroke="none" d="
M 178.5 174.9
L 178.5 175.1
Q 172.2 175.1 168.05 175.4 165.3 175.6 164 176.1 162.95 176.5 162.05 177.2
L 162 177.2 162 177.25
Q 161.95 177.25 161.95 177.3 157.05 177.25 152.5 179.3 149.9 180.6 148.55 181.15 146.5 181.95 145.5 182.35 143.7 183.05 142.65 183.8 142.05 184.25 141.55 184.8 141.35 184.75 141.15 184.75 131.8 197.35 131 215.6 131.8 214.95 132.65 214.3 132.75 214.25 132.85 214.2 133.65 213.8 135.3 212.95 136.95 212.15 139.35 211.25 140.75 210.75 143.5 209.75 145.15 209.15 149.15 207.6 152.75 206.2 154.85 205.5 159.15 204.05 167.55 201.9 172.2 200.75 174.55 200.35 178.5 199.75 181.6 200.15 182.65 200.3 185.15 200.8 187.4 201.3 188.7 201.4 193.15 201.75 195.4 199.45 196.55 198.3 197.15 196.3 197.45 195.4 197.95 192.65 198.65 188.95 200 185.1 200.75 183.05 200.9 182.4 201.3 180.85 201.15 179.65 200.8 177.3 198.5 175.8 196.3 174.4 193.7 174.5
L 193.7 174.6
Q 192.35 174.25 190.9 175.05 190.45 175.3 190.1 175.6 188.25 174.95 185.75 174.85 184.95 174.85 182.15 174.95 179.85 175.05 178.5 174.9 Z"/>
</g>

<g id="Symbol_1_0_Layer0_1_MEMBER_0_MEMBER_5_MEMBER_0_MEMBER_0_STROKES_1_FILL">
<path fill="#000000" stroke="none" d="
M 363.7 269.45
L 363.5 269.9 363.45 270.15 362.5 272.65
Q 361.95 274 361.4 275.25 361 276.15 360.85 276.8 360.65 277.35 360.75 277.75 360.9 278.05 361.5 277.85
L 361.8 277.65 362 277.55 363.9 275.85 365.85 273.6 365.95 273.4 366.1 273.25 367 271.85 367.05 271.8 367.15 271.6 368.35 268.7
Q 369 266.9 369.35 265.35 369.9 263.35 370.2 261.4
L 370.65 257.4
Q 370.75 254.95 370.7 253.9
L 370.65 251.65 370.6 251.4 370.55 250.35 370.35 250.2
Q 369.15 249.55 368 249.8 367.15 250 366.65 250.55
L 366.55 250.7 366.6 251.65 366.65 251.85 366.65 257.1
Q 366.45 259.5 366.25 260.65
L 364.65 267.1 363.8 269.3 363.7 269.45 Z"/>
</g>

<g id="Symbol_1_0_Layer0_1_MEMBER_0_MEMBER_6_FILL">
<path fill="#382C22" stroke="none" d="
M 260.95 175.75
L 260.9 175.75
Q 259.5 175.85 259 175.95 256.75 176.5 255.5 178.65 254.2 180.85 254.85 183.05 255.25 184.4 256.55 186.05 258.55 188.7 258.65 188.85 259 189.35 261.2 194.85 262.7 198.5 264.95 199.65 266.25 200.35 268.2 200.45 268.95 200.45 271.6 200.35 273.15 200.3 274.9 200.35 276.65 200.45 283.15 201.4 267.1 197.1 260.95 175.75 Z"/>

<path fill="#5C493A" stroke="none" d="
M 339.4 209.35
Q 339.05 207.95 338.1 207 338.1 206.5 338.05 206.05 337.75 202.85 334.65 198.15 331.2 193.05 328 190.2 323.4 186.05 315.8 182.85 305.5 178.55 291.85 176.5 283.1 175.2 268.75 174.4 267.85 174.35 266.95 174.3
L 267 174
Q 266.45 173.95 265.8 174.15 265.58828125 174.2205078125 263.75 174.85
L 264.85 174.5
Q 263 175.4 262.75 175.45 262.1 175.65 260.95 175.75 267.1 197.1 283.15 201.4 284.4498046875 201.6107421875 285.95 201.8
L 284.65 201.6
Q 284.8 201.6 285 201.65 286.95 201.95 289.6 202.45 289.7 202.45 289.8 202.45 291.65 202.75 293.85 203.15 298 203.8 306.35 204.95 313.45 206.25 317.95 209.1 319.95 210.4 323.95 213.3 326.8 215.1 329.25 215.35
L 330.8 217.15
Q 331.75 218.3 333.25 218.7 333.5 218.75 333.7 218.85 333.9 219.3 334.25 219.75
L 334.6 220.2 335.15 220.55
Q 335.75 220.8 336.3 220.9
L 336.4 221.15 336.6 221.5 336.65 221.65 336.7 221.75 336.95 222.1 337 222.3 337.15 222.45 337.2 222.55 337.3 222.6 337.7 222.75 337.9 222.8
Q 338.1 222.7 338.2 222.75
L 338.25 222.7
Q 338.35 222.7 338.55 222.5 338.6 222.45 338.75 222.2
L 338.85 221.95 338.9 221.7 338.85 221.3 338.75 221.2 338.7 220.95 338.3 220.45
Q 338.45 220.35 338.6 220.2 339.1 219.8 339.5 218.95
L 339.7 218.05
Q 339.7 217.55 339.4 216.65
L 339.2 216.05
Q 339.6 215.25 339.65 214.35 339.6 213.15 339.6 212.55 339.6 211.45 339.6 210.95 339.55 210 339.4 209.35 Z"/>
</g>

<g id="Symbol_1_0_Layer0_1_MEMBER_0_MEMBER_6_MEMBER_0_MEMBER_0_STROKES_1_FILL">
<path fill="#000000" stroke="none" d="
M 427.45 262.5
L 425.9 256.4 425.8 256.15 424.55 250.65
Q 424.4 249.85 424.15 249.05 423.85 248.3 423.6 248.15 423.3 248 423 248.55
L 422.8 248.9 422.75 249.1 422.65 249.35 422.4 250.25 421.85 255.5 421.9 256.85 421.95 257.05 422.05 257.75 422.45 259.45 422.5 259.85 423.6 263.65
Q 424.5 266 425.15 267.45 425.9 269.15 427 271.1
L 430.8 276.9 431 277.1 431.2 277.15
Q 432.6 277.05 433.4 276.2 434 275.6 434.15 274.8 434.2 274.7 434.15 274.65
L 434.1 274.55
Q 434 274.55 434 274.4
L 433.55 273.9 433.45 273.7 432.95 273.05 432.8 272.8 432.6 272.55 430.5 269.2
Q 429.25 266.8 428.85 265.9 428.25 264.7 427.45 262.5 Z"/>
</g>

<g id="Symbol_1_0_Layer0_1_MEMBER_0_MEMBER_6_MEMBER_0_MEMBER_1_STROKES_1_FILL">
<path fill="#000000" stroke="none" d="
M 440.15 277.4
Q 441.25 277.3 442 277.3 446.2 277.05 450.85 277.2 456.05 277.35 460.85 278 465.8 278.6 470.6 279.85
L 475 281.1 475.25 281.15 478.9 282.4 479.3 282.6 479.55 282.65 482.05 283.7
Q 483.9 284.5 484.5 284.8
L 485.35 285.25 485.75 285.4 485.9 285.5 495.6 290.85 500 293.9 500.05 293.9 503.6 296.5
Q 505.15 297.65 505.6 297.7 506.1 297.8 505.3 296.55
L 504.6 295.6 504.5 295.5 504.4 295.35 504 294.85 499.35 290.15 494.2 286 494 285.8 489.65 282.95 484.3 280.35
Q 483.6 280 480.9 278.9 476.6 277.25 472.15 276.1 467.15 274.8 461.75 274.05 456.9 273.35 451.2 273.2 446.8 273.05 441.95 273.25
L 432.6 274 432.15 274.25
Q 430.25 275.65 430.8 276.75 431.25 277.55 432.7 277.95 432.9 278.05 433.1 278
L 436.6 277.65 436.75 277.65 436.95 277.6 439.7 277.4 440.15 277.4 Z"/>
</g>

<g id="Symbol_1_0_Layer0_1_MEMBER_0_MEMBER_6_MEMBER_0_MEMBER_2_STROKES_1_FILL">
<path fill="#000000" stroke="none" d="
M 484.35 255.45
Q 482.65 255.9 482.45 257.05 482.25 257.9 482.8 258.85 482.85 258.95 482.95 259.05
L 488 261.75 492.65 264.8
Q 495.2 266.65 497.45 268.9 499.8 271.25 501.4 273.65 502.4 275.25 502.8 276.05
L 503.85 278.35
Q 504 278.7 504.55 280.35
L 505.5 284.85
Q 505.8 286.55 505.85 288.25 505.9 289.75 505.8 291.7 505.65 293.25 505.7 293.1
L 505.5 295.85
Q 505.45 297 505.6 297.45 505.85 297.75 506.4 297
L 506.9 296.1 507.85 293.65
Q 508.5 291.65 508.75 290.3 509.1 288.6 509.2 286.9 509.3 285.85 509.3 284.25
L 509.25 283.5 508.5 279.65 506.55 274.6
Q 505.9 273.2 504.9 271.75 504.1 270.5 502.85 268.9
L 500.5 266.25
Q 498.25 264 495.2 261.65
L 486.3 256.2 484.7 255.45
Q 484.65 255.4 484.55 255.4 484.4 255.4 484.35 255.45 Z"/>
</g>

<g id="Symbol_1_0_Layer0_1_MEMBER_0_MEMBER_7_STROKES_1_FILL">
<path fill="#E6B899" stroke="none" d="
M 415 465.95
L 414.45 465.85 414.15 465.85 413.4 465.75 412.95 465.75
Q 411.05 465.6 408.6 465.75 406.7 465.95 404.3 466.45
L 402.25 467.05 400.9 467.85 400.75 467.9 399.9 468.45 399.3 468.95
Q 398.85 469.3 398.6 469.75 398.35 470.05 398.35 470.45 398.45 470.75 398.85 470.9
L 399.35 471 402.35 470.95 403.1 470.85 403.45 470.85 405.1 470.4
Q 406.85 469.95 408.85 469.75
L 411.85 469.7
Q 412.45 469.7 412.7 469.75
L 413.05 469.75 413.4 469.8 413.7 469.8 413.85 469.85 413.95 469.85 414.5 469.9 414.65 469.75
Q 415.7 467.8 415.1 466.05
L 415 465.95 Z"/>
</g>

<g id="Symbol_1_0_Layer0_1_MEMBER_0_MEMBER_8_FILL">
<path fill="#E6B899" stroke="none" d="
M 208.2 242.85
Q 208.3 241.7 208.6 241
L 208.05 239.55 190.45 307.55
Q 187.05 327.05 193.9 342.8 204 363 222.6 358.3 245.45 353.2 247.9 348.45 240.95 349.45 234.65 349.75 226.05 350.25 219.8 349.3 211.8 348.1 206.15 344.4 202.35 341.95 200.75 339 199.25 336.25 198.95 331.25 198.75 327.45 199.1 322.65 199.3 320.05 200 314.05
L 208.2 242.85 Z"/>
</g>

<g id="Symbol_1_0_Layer0_1_MEMBER_0_MEMBER_8_MEMBER_0_STROKES_1_FILL">
<path fill="#000000" stroke="none" d="
M 374.6 337.4
L 375.95 320.55
Q 376.3 314.35 375.85 313.4 375.3 312.3 373.75 320.05 372.3 326.65 370.75 336.1
L 363.35 395.3 363.45 395.8
Q 364.3 398.1 365.55 397.8 366.4 397.6 367.2 396.2 367.35 395.9 367.35 395.8
L 374.6 337.4 Z"/>
</g>

<g id="Symbol_1_0_Layer0_1_MEMBER_0_MEMBER_8_MEMBER_1_STROKES_1_FILL">
<path fill="#000000" stroke="none" d="
M 364.2 394.05
L 363.8 394.45 363.5 394.85
Q 363.35 395 363.35 395.2
L 363.05 397.35 363.05 397.6
Q 362.7 401 362.7 403.55 362.7 405.65 362.9 407.5 363.05 409.5 363.6 411.95
L 364.25 414.25 364.3 414.5 366.55 419.35 367.3 420.4 367.45 420.65 369.8 423.3 370 423.55 371.45 424.8 371.7 424.95 372.7 425.7 373.75 426.35 375.3 427.2
Q 377.5 428.25 379.5 428.85 381.35 429.45 383.35 429.8
L 383.75 429.9 387.95 430.45 389.1 430.5
Q 389.8 430.55 390.75 430.6
L 393.7 430.5 405.4 428.85
Q 405.95 428.7 405.8 428.7
L 410.9 427.1
Q 411.45 426.85 411.55 426.65 411.9 426.35 410.55 426.25
L 407.3 426.35
Q 407.05 426.4 406.5 426.4
L 394.85 426.75
Q 394.55 426.7 394.05 426.7
L 393.7 426.7 393.4 426.65 392.4 426.65 384.6 426
Q 382.55 425.6 381.15 425.2 379.1 424.6 377.5 423.8
L 375.25 422.6 375.15 422.5 375.05 422.45 374.65 422.15 374.55 422.1 374 421.7 373.9 421.6 373.8 421.55 373.6 421.35 373.4 421.2 373.3 421.1 373.2 421.05 372.7 420.6 372.65 420.5 372.45 420.3 372.25 420.15 371.7 419.55 371.65 419.45 371.55 419.35 370.75 418.35 370.6 418.1 370.3 417.7 370.2 417.6 370.15 417.45 369.85 417
Q 369.15 415.8 368.9 415.15
L 368.45 414.2 368.4 414.05 368.35 413.95 368.3 413.7 368.1 413.2 367.55 411.2
Q 367.05 409.4 366.9 407.3 366.7 405.55 366.7 403.65 366.7 400.85 367 398.05
L 367.3 395.8 367.2 395.35 366.7 394.45 366.2 393.85
Q 365.7 393.5 365.15 393.55 364.75 393.6 364.2 394.05 Z"/>
</g>

<g id="Symbol_1_0_Layer0_1_MEMBER_0_MEMBER_9_MEMBER_0_STROKES_1_FILL">
<path fill="#000000" stroke="none" d="
M 263.65 393.3
L 262.3 391.05
Q 261.7 390.25 261.1 390.25 260.45 390.3 260.15 391.55 259.8 392.65 259.75 394.15
L 261.85 402.75 262 402.75
Q 264.3 402.8 265.65 401.85
L 265.75 401.75 263.65 393.3 Z"/>
</g>

<g id="Symbol_1_0_Layer0_1_MEMBER_0_MEMBER_10_MEMBER_0_STROKES_1_FILL">
<path fill="#000000" stroke="none" d="
M 538.05 379.55
L 537.2 378.15
Q 536.95 377.8 536.95 377.9
L 536.35 377.45
Q 535.95 377.35 535.75 377.4 535.5 377.4 535.2 377.7
L 535 378.05 534.9 378.3 534.85 378.55 534.65 378.95 534.65 379.05 534.2 380.4 534.25 380.45 534.25 380.65 534.3 380.9 534.3 382.75 534.25 383 534.25 383.15 534.2 383.3
Q 534 384.55 533.75 385.3
L 533.45 386.3 533.55 386.4
Q 535.4 387.55 537.1 387.7
L 537.2 387.65 538.2 383.9 538.25 380.25 538.2 380.1 538.2 379.9
Q 538.1 379.8 538.05 379.55 Z"/>
</g>

<g id="Symbol_1_0_Layer0_1_MEMBER_0_MEMBER_11_FILL">
<path fill="#E6B899" stroke="none" d="
M 370 275.95
Q 381.4 265.2 381.25 254.2 372.05 262.85 370 275.95 Z"/>
</g>

<g id="Symbol_1_0_Layer0_1_MEMBER_0_MEMBER_11_MEMBER_0_STROKES_1_FILL">
<path fill="#000000" stroke="none" d="
M 542.7 342.15
L 541 346.15 540.7 347.05 540.6 347.25 540.55 347.4 540.5 347.65 540.4 347.85 540.4 347.9 540.35 348.1 540 350.2 540 350.5 539.95 350.75 539.8 352.7
Q 539.7 353.6 539.8 353.5
L 539.85 354.35 540 355.05
Q 540.15 355.75 540.45 355.9 540.7 356.1 541.1 355.65
L 541.5 355 544.15 349.35 544.2 349.15 546.25 344.05
Q 547.1 342.3 547.8 341.1 548.9 339.1 549.5 338.2 550.1 337.2 551.15 335.7
L 551.8 334.7
Q 552 334.55 552.1 334.3
L 552.9 333.25 552.85 333.05
Q 551.95 330.8 549.85 330.8 549.7 330.8 549.7 330.85
L 548.55 332.35 542.7 342.15 Z"/>
</g>

<g id="Symbol_1_0_Layer0_1_MEMBER_1_MEMBER_0_FILL">
<path fill="#382E22" stroke="none" d="
M 437.85 356.25
Q 446.6 324.8 436.4 299.1 408.8 293.85 390.4 278.55 391.208203125 342.941796875 437.85 356.25 Z"/>

<path fill="#5B4A3B" stroke="none" d="
M 427.6 173.3
Q 410.3 122.65 373.6 70.65 304.6 -24.75 226.4 8.65 215.95 1.95 201.55 0.6 154.4 0.4 118.95 22.25 102.35 82.85 137.5 114.75 146.35 102.9 156.9 95.6 223.65 141.95 301.35 100.65 310.65 110 320.75 125.1 338.45 150.95 353.1 206.55 353.85 209.6 354.65 212.7 362.2 237.95 367.4 249.1 376.2 266.75 390.35 278.5
L 390.4 278.55
Q 408.8 293.85 436.4 299.1 446.6 324.8 437.85 356.25 440.8 358.85 443.5 360 437.6 355.25 449.05 331.4 449.35 330.6 449.65 329.8 460.85 298.6 448.45 265.6
L 433.35 224.6
Q 448.1 234.35 460.9 235.45
L 457.65 230.05
Q 457.4 229.95 457.1 229.8 444.9 223.9 427.6 173.3 Z"/>
</g>

<g id="Symbol_1_0_Layer0_1_MEMBER_1_MEMBER_1_FILL">
<path fill="#382E22" stroke="none" d="
M 137.5 114.75
Q 102.35 82.85 118.95 22.25 32.75 75.35 15.5 258.65 13.65 285.5 0 298.7 13.55 296.4 21.95 289.6 16.95 348.15 32.95 398.6 32.7 379.6 41.95 359.1
L 45.45 334.6
Q 79.35 321.1 104.85 198.25 116.25 143.3 137.5 114.75 Z"/>
</g>

<g id="Symbol_1_0_Layer0_1_MEMBER_1_MEMBER_1_STROKES_1_FILL">
<path fill="#000000" stroke="none" d="
M 156.65 96.5
Q 157.3 95.35 156.4 95.35
L 155.35 95.5
Q 154.85 95.65 154 96.05
L 153.6 96.2 152.4 96.8 149.2 99 147.85 100.2
Q 145.45 102.35 143.3 104.65
L 141.85 106.2 141.5 106.65 139.35 109.15
Q 139.25 109.2 139.15 109.4
L 135.9 113.5 135.75 113.65 130.5 121.35 130.1 122.1
Q 126.4 128.1 123.15 134.65
L 116.8 149.25 111.2 165.25
Q 109.5 170.75 108.75 173.55
L 99.1 215.2
Q 97.1 223.95 95.5 230.35 94.4 234.65 92 243.8 89.75 251.9 88.8 255.1
L 80.9 279.45
Q 79.6 283.2 77.8 287.7 75.95 292.5 73.95 296.95 72.2 301 69.65 305.9 67.7 309.7 65.55 313.25
L 59.1 322.55 58 323.85 57.85 324 57.25 324.75 52.3 329.6 52.15 329.7 51.85 329.95
Q 50 331.5 47.95 332.75
L 45.65 334.15
Q 45.1 334.6 45.8 334.45
L 48.35 333.55 48.6 333.4 48.75 333.35 48.9 333.25 50.85 332.25 50.9 332.15 51.2 332 51.55 331.75 51.95 331.55 54.85 329.4
Q 56.75 327.9 58.7 325.95 60.95 323.75 62.85 321.25 65.2 318.45 67.85 314.45 70.25 310.8 72.45 306.9 76.1 300.45 79.95 291.7
L 86.5 275.35 91.95 258.5
Q 94.3 250.5 95.25 247 96.75 241.8 98.9 233.25
L 102.6 217.8
Q 104.1 211.45 106.25 201.25
L 113.9 170 114.1 169.5 114.7 167.45
Q 117.3 159 120.2 151.45 122.05 146.7 123.3 144
L 123.65 143.1 129.2 131.65 129.45 131.25 129.85 130.45 135.2 121.45 135.45 121.15 139.05 115.95 139.15 115.85 139.25 115.7 140.1 114.6
Q 143.1 110.75 146.15 107.5 148.75 104.75 150.55 103.2
L 153.5 100.45 156.65 96.5
M 254.8 86.35
Q 257.8 85.25 260.85 84.75 264.2 84.25 267 84.4 270.1 84.55 273 85.3 276.25 86.2 278.65 87.35
L 284.95 90.25
Q 287.8 91.85 290.85 94.1 293.9 96.4 296.3 98.6
L 301.4 103.55
Q 306 108.4 310.65 114.45
L 319.05 126.2 322.4 123.95 314 112.2
Q 309.7 106.6 304.6 101.1
L 302.75 99.2 302.65 99.15 299.35 95.95
Q 296.6 93.4 293.7 91.25 290.9 89.1 287.55 87.15 286.35 86.4 284.25 85.4 282.6 84.6 280.8 83.9 277.45 82.9 274.15 82.45 270.9 82.1 267.35 82.4 265.5 82.55 264.05 82.9
L 261.2 83.6 261 83.7 260.8 83.75
Q 257.55 84.85 254.8 86.35
M 447.6 329.75
Q 447.45 329.8 447.45 329.9
L 447.15 330.65 447.2 330.5
Q 444.45 336.25 442.85 340.45 441.9 342.9 441.05 345.65
L 439.75 351.15 439.7 353.4 439.95 355.4 439.9 355.35 439.55 355.05 439.5 355.05 434.9 350.4
Q 434.8 350.2 434.6 350.05
L 428.1 341.25 427.7 340.85
Q 427.35 340.5 426.85 340.25
L 425.8 339.75
Q 425 339.45 424.5 339.35
L 424.35 341.8 424.6 342.9 424.7 343.15 425.15 343.95 427.75 347.7
Q 428.05 348.2 428.95 349.3 430.05 350.85 431.15 352.1
L 431.9 353 432.2 353.3 432.25 353.4 433.2 354.45
Q 434.05 355.45 435.75 357.05
L 436.45 357.7 436.5 357.7 436.75 357.95 436.85 358 437.35 358.45
Q 438.35 359.25 438.95 359.65 439.4 360 440.35 360.6
L 440.9 360.95 441.35 361.15
Q 442.05 361.5 442.75 361.65
L 442.35 361.4
Q 443.3 361.9 444.3 361.75 445.2 361.7 446.1 361.1 445.5 360.4 445.15 359.65
L 444.6 358.55 442.9 357.45
Q 442.8515625 356.669140625 442.9 355.7
L 444.25 349.05 446.4 342.4
Q 447.65 339.1 449.2 335.7 450.45 332.95 450.85 332.25
L 450.9 332.15 450.9 332.1 451.2 331.3 451.1 331.05
Q 450.35 329.9 449.2 329.65 448.35 329.5 447.6 329.75
M 414.45 290.85
L 408.3 287.75
Q 407.6 287.45 404.95 286
L 400.25 283.25 400.05 283.15 389.9 275.5 388.15 273.9 387.95 273.75 382.2 267.8 378.05 262.7 371.6 252.8 371.4 252.35 369.15 248.15 365.6 250 371.35 260.1 376.05 266.65 376.2 266.8 380.95 272.35
Q 381.35 272.85 382.3 273.8
L 385.4 276.85 385.8 277.15 389.1 280.05 389.25 280.2 392.55 282.75
Q 393.15 283.2 395.7 285.05
L 400.4 288.05 400.65 288.15 407.8 292 415.9 295 418.45 295.7 418.65 295.8 422.65 296.8
Q 429.05 298.35 436.35 299.3 429.8 297.5 423.65 295.05
L 414.6 290.95 414.45 290.85
M 451 231.3
L 450.8 231.2 445.25 228.95
Q 441.65 227.3 438.3 225.3
L 435.15 223.35 434.9 223.4
Q 433.6 223.9 433.1 225 432.75 225.75 432.9 226.6
L 433 226.75 433.9 227.35 434.1 227.45 436.25 228.75
Q 439.6 230.8 443.4 232.5
L 445.4 233.4 454.1 236.5 460.2 237.35
Q 461.25 237.45 461.15 237.35
L 462.15 237.35 463 237.25
Q 463.8 237.1 464.05 236.85 464.25 236.55 463.7 236.2 463.5 236 462.9 235.75
L 451.25 231.35 451 231.3 Z"/>
</g>

<g id="Symbol_1_0_Layer0_1_MEMBER_1_MEMBER_1_MEMBER_0_STROKES_1_FILL">
<path fill="#000000" stroke="none" d="
M 169.45 87.15
Q 166 88.5 162.65 90.35 159.8 91.85 157 93.8
L 153.15 96.55 152.1 97.45 151.9 97.55 151.65 97.8 151.5 98.1
Q 150.9 99.7 151.7 100.15 152.25 100.5 153.3 100.2 153.4 100.2 153.6 100.1
L 153.7 100 153.85 99.9 154 99.75 158.05 96.7 163.9 93.1
Q 166.95 91.4 170.3 90.05 173.4 88.75 176.95 87.75
L 187.25 85.8 194.65 85.2
Q 197.5 85.05 200.1 85.1
L 203.2 85.1
Q 204.6 85 204.85 84.9 205.2 84.7 204.25 84.35 202.8 83.85 200.4 83.45
L 197.65 83.05 197.45 83 197.2 83 195.8 82.85 195.55 82.8 192.3 82.65 191.9 82.6 189.25 82.6 182.9 83.35
Q 179.3 84.05 176.55 84.75 172.7 85.85 169.45 87.15 Z"/>
</g>

<g id="Symbol_1_0_Layer0_1_MEMBER_1_MEMBER_1_MEMBER_1_STROKES_1_FILL">
<path fill="#000000" stroke="none" d="
M 605.35 274.9
Q 604.6 275.35 604.3 276.3 604.25 276.45 604.3 276.55
L 604.45 276.95 604.5 277.15 608.15 286.15
Q 609.8 289.6 610.75 291.4 611.75 293.35 613.75 296.5 615.35 298.9 616.75 300.7
L 618.85 303.3 618.95 303.4 619.05 303.55 619.75 304.3 619.85 304.45 619.95 304.5 620 304.6 624.85 308.45 627 309.8 628.95 310.7 630.1 311.05 630.3 311.15 630.95 311.25 631.5 311.2
Q 631.9 311.05 631.3 310.4
L 629.4 308.65 629.2 308.5 628.5 307.85 628.35 307.75 628.25 307.6 627.7 307.1 623.2 302.15 619.6 297.9 619.55 297.8 619.45 297.7 617.3 294.6
Q 615.6 291.95 614.4 289.7
L 611.85 284.6 608.35 276.05 608.3 275.8 608.2 275.6 608.1 275.2 607.85 275
Q 606.35 274.25 605.35 274.9 Z"/>
</g>

<path id="Symbol_1_0_Layer0_1_MEMBER_0_1_STROKES" stroke="#000000" stroke-width="4" stroke-linejoin="round" stroke-linecap="round" fill="none" d="
M 231.05 77.55
Q 239.3 77.85 248.4 78.65 305.05 82.75 329.7 116.1 346.35 136.8 358.95 182.6 362.9 197.75 361.2 224.6 363.9 246.75 369.8 242.25 377.4 232.5 384.2 238.6 388.05 241 391.95 250.35 404.2 282.8 367.7 312.95 360.05 357.25 334.05 394.35 319.65 414.9 299.55 433.25 273.25 457.35 230.9 458.95 227.9 459.05 224.9 459.05 184.3 458.8 151.8 430.9 137.4 419.4 125.8 403.9 103.2 373.65 90.9 328.15 47.7 295.4 60.7 261.35 72.05 239.55 84.1 257.65 90.1 264.55 93.4 246.65 93.35 238.7 93 228.8 92.05 201.2 99.3 171.85 105.25 144.45 123.5 122.8 123.8 122.45 124.1 122.1 124.35 121.8 124.6 121.55 124.75 121.3 124.95 121.1
M 125.05 121
L 139.15 103.95 139.2 103.9
Q 144.15 97.25 145.9 93.35 151.4 84.95 164.35 80.25 177.25 75.55 196.5 76.25 215.75 76.9 231.05 77.55
M 124.6 121.55
L 125.05 121"/>

<path id="Symbol_1_0_Layer0_1_MEMBER_0_MEMBER_5_MEMBER_0_1_STROKES" stroke="#000000" stroke-width="4" stroke-linejoin="round" stroke-linecap="round" fill="none" d="
M 201 175.45
Q 133.5 171.2 119.75 205.7 116.85 215.25 119.75 221.95 152.85 199.1 193.4 201.5"/>

<path id="Symbol_1_0_Layer0_1_MEMBER_0_MEMBER_6_MEMBER_0_1_STROKES" stroke="#000000" stroke-width="4" stroke-linejoin="round" stroke-linecap="round" fill="none" d="
M 257.5 175.6
Q 290.15 173.9 309.5 180.25 313.55 181.55 317 183.25"/>

<path id="Symbol_1_0_Layer0_1_MEMBER_1_MEMBER_1_1_STROKES" stroke="#000000" stroke-width="4" stroke-linejoin="round" stroke-linecap="round" fill="none" d="
M 433.35 224.6
L 448.45 265.6
Q 460.85 298.6 449.65 329.8
M 320.75 125.1
Q 338.45 150.95 353.1 206.55 353.85 209.6 354.65 212.7 362.2 237.95 367.4 249.1
M 438.25 200.35
Q 410.3 122.65 373.6 70.65 304.6 -24.75 226.4 8.65 215.95 1.95 201.55 0.6 154.4 0.4 118.95 22.25
M 41.95 359.1
Q 32.7 379.6 32.95 398.6 16.95 348.15 21.95 289.6 13.55 296.4 0 298.7 13.65 285.5 15.5 258.65 32.75 75.35 118.95 22.25"/>

<path id="Symbol_1_0_Layer0_1_MEMBER_1_MEMBER_1_2_STROKES" stroke="#000000" stroke-width="3" stroke-linejoin="round" stroke-linecap="round" fill="none" d="
M 156.9 95.6
Q 223.65 141.95 301.35 100.65"/>
</defs>

<g transform="matrix( 0.5449676513671875, 0, 0, 0.5449676513671875, 0.05,1.1) ">
<g transform="matrix( 1, 0, 0, 1, -507.3,0) ">
<use xlink:href="#Symbol_1_0_Layer0_0_FILL"/>
</g>

<g transform="matrix( 1, 0, 0, 1, 0,0) ">
<use xlink:href="#Symbol_1_0_Layer0_1_MEMBER_0_FILL"/>

<use xlink:href="#Symbol_1_0_Layer0_1_MEMBER_0_1_STROKES"/>
</g>

<g transform="matrix( 1, 0, 0, 1, -163,-69.9) ">
<use xlink:href="#Symbol_1_0_Layer0_1_MEMBER_0_MEMBER_0_STROKES_1_FILL"/>
</g>

<g transform="matrix( 1, 0, 0, 1, -167.55,-74.4) ">
<use xlink:href="#Symbol_1_0_Layer0_1_MEMBER_0_MEMBER_1_STROKES_1_FILL"/>
</g>

<g transform="matrix( 1, 0, 0, 1, -167.55,-74.4) ">
<use xlink:href="#Symbol_1_0_Layer0_1_MEMBER_0_MEMBER_2_STROKES_1_FILL"/>
</g>

<g transform="matrix( 1, 0, 0, 1, -167.55,-74.4) ">
<use xlink:href="#Symbol_1_0_Layer0_1_MEMBER_0_MEMBER_3_STROKES_1_FILL"/>
</g>

<g transform="matrix( 1, 0, 0, 1, 0,0) ">
<use xlink:href="#Symbol_1_0_Layer0_1_MEMBER_0_MEMBER_4_FILL"/>
</g>

<g transform="matrix( 1, 0, 0, 1, -0.05,-0.1) ">
<use xlink:href="#Symbol_1_0_Layer0_1_MEMBER_0_MEMBER_5_FILL"/>
</g>

<g transform="matrix( 1, 0, 0, 1, -0.05,-0.1) ">
<use xlink:href="#Symbol_1_0_Layer0_1_MEMBER_0_MEMBER_5_MEMBER_0_1_STROKES"/>
</g>

<g transform="matrix( 1, 0, 0, 1, -167.55,-74.4) ">
<use xlink:href="#Symbol_1_0_Layer0_1_MEMBER_0_MEMBER_5_MEMBER_0_MEMBER_0_STROKES_1_FILL"/>
</g>

<g transform="matrix( 1, 0, 0, 1, -0.05,-0.1) ">
<use xlink:href="#Symbol_1_0_Layer0_1_MEMBER_0_MEMBER_6_FILL"/>
</g>

<g transform="matrix( 1, 0, 0, 1, -0.05,-0.1) ">
<use xlink:href="#Symbol_1_0_Layer0_1_MEMBER_0_MEMBER_6_MEMBER_0_1_STROKES"/>
</g>

<g transform="matrix( 1, 0, 0, 1, -167.55,-74.4) ">
<use xlink:href="#Symbol_1_0_Layer0_1_MEMBER_0_MEMBER_6_MEMBER_0_MEMBER_0_STROKES_1_FILL"/>
</g>

<g transform="matrix( 1, 0, 0, 1, -167.55,-74.4) ">
<use xlink:href="#Symbol_1_0_Layer0_1_MEMBER_0_MEMBER_6_MEMBER_0_MEMBER_1_STROKES_1_FILL"/>
</g>

<g transform="matrix( 1, 0, 0, 1, -167.55,-74.4) ">
<use xlink:href="#Symbol_1_0_Layer0_1_MEMBER_0_MEMBER_6_MEMBER_0_MEMBER_2_STROKES_1_FILL"/>
</g>

<g transform="matrix( 1, 0, 0, 1, -167.55,-74.4) ">
<use xlink:href="#Symbol_1_0_Layer0_1_MEMBER_0_MEMBER_7_STROKES_1_FILL"/>
</g>

<g transform="matrix( 1, 0, 0, 1, -0.05,-0.1) ">
<use xlink:href="#Symbol_1_0_Layer0_1_MEMBER_0_MEMBER_8_FILL"/>
</g>

<g transform="matrix( 1, 0, 0, 1, -167.55,-74.4) ">
<use xlink:href="#Symbol_1_0_Layer0_1_MEMBER_0_MEMBER_8_MEMBER_0_STROKES_1_FILL"/>
</g>

<g transform="matrix( 1, 0, 0, 1, -167.15,-77.6) ">
<use xlink:href="#Symbol_1_0_Layer0_1_MEMBER_0_MEMBER_8_MEMBER_1_STROKES_1_FILL"/>
</g>

<g transform="matrix( 1, 0, 0, 1, -172.3,-70.85) ">
<use xlink:href="#Symbol_1_0_Layer0_1_MEMBER_0_MEMBER_9_MEMBER_0_STROKES_1_FILL"/>
</g>

<g transform="matrix( 1, 0, 0, 1, -167.55,-74.4) ">
<use xlink:href="#Symbol_1_0_Layer0_1_MEMBER_0_MEMBER_10_MEMBER_0_STROKES_1_FILL"/>
</g>

<g transform="matrix( 1, 0, 0, 1, -0.05,-0.1) ">
<use xlink:href="#Symbol_1_0_Layer0_1_MEMBER_0_MEMBER_11_FILL"/>
</g>

<g transform="matrix( 1, 0, 0, 1, -170.8,-80.1) ">
<use xlink:href="#Symbol_1_0_Layer0_1_MEMBER_0_MEMBER_11_MEMBER_0_STROKES_1_FILL"/>
</g>

<g transform="matrix( 1, 0, 0, 1, 0,0) ">
<use xlink:href="#Symbol_1_0_Layer0_1_MEMBER_1_MEMBER_0_FILL"/>
</g>

<g transform="matrix( 1, 0, 0, 1, 0,0) ">
<use xlink:href="#Symbol_1_0_Layer0_1_MEMBER_1_MEMBER_1_FILL"/>

<use xlink:href="#Symbol_1_0_Layer0_1_MEMBER_1_MEMBER_1_1_STROKES"/>

<use xlink:href="#Symbol_1_0_Layer0_1_MEMBER_1_MEMBER_1_2_STROKES"/>

<use xlink:href="#Symbol_1_0_Layer0_1_MEMBER_1_MEMBER_1_STROKES_1_FILL"/>
</g>

<g transform="matrix( 1, 0, 0, 1, -0.05,-0.1) ">
<use xlink:href="#Symbol_1_0_Layer0_1_MEMBER_1_MEMBER_1_MEMBER_0_STROKES_1_FILL"/>
</g>

<g transform="matrix( 1, 0, 0, 1, -167.55,-74.4) ">
<use xlink:href="#Symbol_1_0_Layer0_1_MEMBER_1_MEMBER_1_MEMBER_1_STROKES_1_FILL"/>
</g>
</g>
</svg>
